<mxfile host="app.diagrams.net" modified="2021-07-26T11:16:48.887Z" agent="5.0 (Macintosh; Intel Mac OS X 10_15_6) AppleWebKit/537.36 (KHTML, like Gecko) Chrome/91.0.4472.114 Safari/537.36" etag="qsnlPw_CithrjC9JzDD0" version="14.8.5" type="github">
  <diagram id="GT1y-rc0Hk91Yud6sWGL" name="Page-1">
    <mxGraphModel dx="1033" dy="1795" grid="1" gridSize="10" guides="1" tooltips="1" connect="1" arrows="1" fold="1" page="1" pageScale="1" pageWidth="827" pageHeight="1169" math="0" shadow="0">
      <root>
        <mxCell id="0" />
        <mxCell id="1" parent="0" />
        <mxCell id="5vuApOfT_cjBhhZYTmAU-3" style="edgeStyle=orthogonalEdgeStyle;rounded=0;orthogonalLoop=1;jettySize=auto;html=1;exitX=1;exitY=0.5;exitDx=0;exitDy=0;entryX=0;entryY=0.5;entryDx=0;entryDy=0;fontSize=9;shape=link;" edge="1" parent="1" source="xVTkL853BXkWZyznKZ-w-4" target="5vuApOfT_cjBhhZYTmAU-13">
          <mxGeometry relative="1" as="geometry">
            <mxPoint x="550" y="150" as="targetPoint" />
          </mxGeometry>
        </mxCell>
        <mxCell id="5vuApOfT_cjBhhZYTmAU-5" style="edgeStyle=orthogonalEdgeStyle;rounded=0;orthogonalLoop=1;jettySize=auto;html=1;exitX=0.5;exitY=1;exitDx=0;exitDy=0;entryX=0.5;entryY=0;entryDx=0;entryDy=0;fontSize=9;" edge="1" parent="1" source="xVTkL853BXkWZyznKZ-w-4" target="5vuApOfT_cjBhhZYTmAU-4">
          <mxGeometry relative="1" as="geometry">
            <Array as="points">
              <mxPoint x="414" y="220" />
              <mxPoint x="230" y="220" />
            </Array>
          </mxGeometry>
        </mxCell>
        <mxCell id="5vuApOfT_cjBhhZYTmAU-16" value="custom-workflow" style="edgeLabel;html=1;align=center;verticalAlign=middle;resizable=0;points=[];fontSize=9;" vertex="1" connectable="0" parent="5vuApOfT_cjBhhZYTmAU-5">
          <mxGeometry x="0.6282" y="1" relative="1" as="geometry">
            <mxPoint x="-1" y="-60" as="offset" />
          </mxGeometry>
        </mxCell>
        <mxCell id="5vuApOfT_cjBhhZYTmAU-10" style="edgeStyle=orthogonalEdgeStyle;rounded=0;orthogonalLoop=1;jettySize=auto;html=1;exitX=0.5;exitY=1;exitDx=0;exitDy=0;entryX=0.5;entryY=0;entryDx=0;entryDy=0;fontSize=9;" edge="1" parent="1" source="xVTkL853BXkWZyznKZ-w-4" target="5vuApOfT_cjBhhZYTmAU-8">
          <mxGeometry relative="1" as="geometry">
            <Array as="points">
              <mxPoint x="414" y="220" />
              <mxPoint x="520" y="220" />
            </Array>
          </mxGeometry>
        </mxCell>
        <mxCell id="5vuApOfT_cjBhhZYTmAU-15" style="edgeStyle=orthogonalEdgeStyle;rounded=0;orthogonalLoop=1;jettySize=auto;html=1;exitX=0.5;exitY=1;exitDx=0;exitDy=0;entryX=0.5;entryY=0;entryDx=0;entryDy=0;fontSize=9;" edge="1" parent="1" source="xVTkL853BXkWZyznKZ-w-4" target="5vuApOfT_cjBhhZYTmAU-14">
          <mxGeometry relative="1" as="geometry">
            <Array as="points">
              <mxPoint x="414" y="220" />
              <mxPoint x="360" y="220" />
            </Array>
          </mxGeometry>
        </mxCell>
        <mxCell id="xVTkL853BXkWZyznKZ-w-4" value="&lt;span style=&quot;color: rgb(0 , 0 , 0) ; font-family: &amp;#34;helvetica&amp;#34; ; font-size: 9px ; font-style: normal ; font-weight: 400 ; letter-spacing: normal ; text-align: center ; text-indent: 0px ; text-transform: none ; word-spacing: 0px ; background-color: rgb(248 , 249 , 250) ; display: inline ; float: none&quot;&gt;Check if affected root level components of the dep graph&lt;/span&gt;" style="rounded=0;whiteSpace=wrap;html=1;fontSize=9;" parent="1" vertex="1">
          <mxGeometry x="354" y="120" width="120" height="60" as="geometry" />
        </mxCell>
        <mxCell id="5vuApOfT_cjBhhZYTmAU-23" style="edgeStyle=orthogonalEdgeStyle;rounded=0;orthogonalLoop=1;jettySize=auto;html=1;exitX=0.5;exitY=1;exitDx=0;exitDy=0;entryX=0.5;entryY=0;entryDx=0;entryDy=0;fontSize=9;" edge="1" parent="1" source="xVTkL853BXkWZyznKZ-w-5" target="5vuApOfT_cjBhhZYTmAU-21">
          <mxGeometry relative="1" as="geometry">
            <Array as="points">
              <mxPoint x="360" y="-30" />
              <mxPoint x="310" y="-30" />
            </Array>
          </mxGeometry>
        </mxCell>
        <mxCell id="5vuApOfT_cjBhhZYTmAU-24" value="MASTER BRANCH" style="edgeLabel;html=1;align=center;verticalAlign=middle;resizable=0;points=[];fontSize=9;" vertex="1" connectable="0" parent="5vuApOfT_cjBhhZYTmAU-23">
          <mxGeometry x="0.161" y="-4" relative="1" as="geometry">
            <mxPoint x="-12" y="-4" as="offset" />
          </mxGeometry>
        </mxCell>
        <mxCell id="5vuApOfT_cjBhhZYTmAU-26" style="edgeStyle=orthogonalEdgeStyle;rounded=0;orthogonalLoop=1;jettySize=auto;html=1;exitX=0.5;exitY=1;exitDx=0;exitDy=0;entryX=0.5;entryY=0;entryDx=0;entryDy=0;fontSize=9;" edge="1" parent="1" source="xVTkL853BXkWZyznKZ-w-5" target="xVTkL853BXkWZyznKZ-w-4">
          <mxGeometry relative="1" as="geometry">
            <Array as="points">
              <mxPoint x="360" y="-30" />
              <mxPoint x="414" y="-30" />
            </Array>
          </mxGeometry>
        </mxCell>
        <mxCell id="xVTkL853BXkWZyznKZ-w-5" value="&lt;span style=&quot;color: rgb(0 , 0 , 0) ; font-family: &amp;#34;helvetica&amp;#34; ; font-size: 9px ; font-style: normal ; font-weight: 400 ; letter-spacing: normal ; text-align: center ; text-indent: 0px ; text-transform: none ; word-spacing: 0px ; background-color: rgb(248 , 249 , 250) ; display: inline ; float: none&quot;&gt;Determine which files are affected&lt;/span&gt;" style="rounded=0;whiteSpace=wrap;html=1;fontSize=9;" parent="1" vertex="1">
          <mxGeometry x="300" y="-120" width="120" height="60" as="geometry" />
        </mxCell>
        <mxCell id="5vuApOfT_cjBhhZYTmAU-28" style="edgeStyle=orthogonalEdgeStyle;rounded=0;orthogonalLoop=1;jettySize=auto;html=1;exitX=0.5;exitY=1;exitDx=0;exitDy=0;entryX=0.5;entryY=0;entryDx=0;entryDy=0;fontSize=9;" edge="1" parent="1" source="5vuApOfT_cjBhhZYTmAU-4" target="5vuApOfT_cjBhhZYTmAU-20">
          <mxGeometry relative="1" as="geometry" />
        </mxCell>
        <mxCell id="5vuApOfT_cjBhhZYTmAU-4" value="Run defined custom workflow" style="rounded=0;whiteSpace=wrap;html=1;fontSize=9;" vertex="1" parent="1">
          <mxGeometry x="170" y="370" width="120" height="60" as="geometry" />
        </mxCell>
        <mxCell id="5vuApOfT_cjBhhZYTmAU-29" style="edgeStyle=orthogonalEdgeStyle;rounded=0;orthogonalLoop=1;jettySize=auto;html=1;exitX=0.5;exitY=1;exitDx=0;exitDy=0;fontSize=9;entryX=0.5;entryY=0;entryDx=0;entryDy=0;" edge="1" parent="1" source="5vuApOfT_cjBhhZYTmAU-6" target="5vuApOfT_cjBhhZYTmAU-20">
          <mxGeometry relative="1" as="geometry">
            <mxPoint x="330" y="450" as="targetPoint" />
          </mxGeometry>
        </mxCell>
        <mxCell id="5vuApOfT_cjBhhZYTmAU-6" value="Run separated build over API" style="rounded=0;whiteSpace=wrap;html=1;fontSize=9;" vertex="1" parent="1">
          <mxGeometry x="380" y="370" width="120" height="60" as="geometry" />
        </mxCell>
        <mxCell id="5vuApOfT_cjBhhZYTmAU-9" style="edgeStyle=orthogonalEdgeStyle;rounded=0;orthogonalLoop=1;jettySize=auto;html=1;exitX=0.5;exitY=1;exitDx=0;exitDy=0;entryX=0.5;entryY=0;entryDx=0;entryDy=0;fontSize=9;" edge="1" parent="1" source="5vuApOfT_cjBhhZYTmAU-8" target="5vuApOfT_cjBhhZYTmAU-6">
          <mxGeometry relative="1" as="geometry">
            <Array as="points">
              <mxPoint x="520" y="350" />
              <mxPoint x="440" y="350" />
            </Array>
          </mxGeometry>
        </mxCell>
        <mxCell id="5vuApOfT_cjBhhZYTmAU-8" value="Get services list accordingly with the GIT DIFF" style="rounded=0;whiteSpace=wrap;html=1;fontSize=9;" vertex="1" parent="1">
          <mxGeometry x="460" y="270" width="120" height="60" as="geometry" />
        </mxCell>
        <mxCell id="5vuApOfT_cjBhhZYTmAU-12" value="NO" style="edgeLabel;html=1;align=center;verticalAlign=middle;resizable=0;points=[];fontSize=9;" vertex="1" connectable="0" parent="1">
          <mxGeometry x="433" y="214" as="geometry">
            <mxPoint x="-9" y="-1" as="offset" />
          </mxGeometry>
        </mxCell>
        <mxCell id="5vuApOfT_cjBhhZYTmAU-13" value="" style="shape=image;verticalLabelPosition=bottom;labelBackgroundColor=#ffffff;verticalAlign=top;aspect=fixed;imageAspect=0;image=data:image/png,iVBORw0KGgoAAAANSUhEUgAAAhgAAAGACAYAAADvWRujAAAgAElEQVR4Aex9+XdUx7X195egeUQISUiAEBKaB4QQAjFPwoDBYOZ5sDGeGIyNJ4xtEfs5Tmyc2HE8JLEzPCcvz8Oyl1+8EvC/U9/aV5zS6eq63X27W+qWtH+4q+6tedi3zr6nTtX9f/PmzTO82AfEADFADBADxAAxkE0M/L9sZsa8CE5igBggBogBYoAYAAZIMKjBoQaLGCAGiAFigBjIOgZIMAiqrIOKXy/8eiEGiAFigBggwSDBIMEgBogBYoAYIAayjgESjDkCqsY1+0zn0VumZcfFrIMoypdKQVGxWbR6j2nb+2xQH9Rp+a4nclqnKPVnXH6VEQPEADGQGgZIMHJMMMpqm0zFolZTUlU7pUJ24NKHZsOdn83aV7+f0nISvXgVDcvNutd+DOqBusgFv0TpGJbay8x+Yj8RA8RAPmGABCPHBEMEbt+5d6dUyOYDwRh8+rNJUnHrB4M295x+y7Ttuzalbc+nF451oQAgBoiBuYIBEgwSjGkT7hvG7wcEA0RjrrxgbCeFCTFADMxVDJBgkGBMi7DHEpAsieTaDmSuvuxsNwUdMUAMTCcGZg3BWLLxeGDAWLNitYFdQ8vOx8zgk783A4//JvAvnV+fUJBWLe4I4i3bccEUFBaZwpIy07Byp+k59ZYZuvKF6Tn9tlnQMeLNo2pJp2nd/ZTpf+wDg6/zziOvGhhVzptXEBcf9hYQsHKtf/M/geBdc/Of1k/C5i8fiEsv4FjYs9G0H7hhVl7+OLhW7L9uajvXhsbXSySFxaVm8eihYIli1TN/MCseuWHmt/jLQtzmrWeCq7yuOS5/9KuEu3YktV2jtk0oQwgG+knaCLdp3cG4fKWdY2Nj5tq1a/Zqb28PjStp6HISJQaIAWIg9xiYNQRDBPXgU5+Y0dd/ssJMhBr8qpt7Q4XTsu3nbZry+mZvHsirurknJg+dTsoSd/X1vxqX2CzZcNSWI/HC3PaDL8SUhRcGAh+2C2Fpuk+8aQoKi+PSCcGAzcfQtT970zdvORWXrqx2sY3rIwILezbYcJA7/VL3X3zfhoXVF/6JjDw///xzc+/ePXudPXs2pgxdHu9zP6FwDDgGxAAxIBiYdQRDBNnq638xEND4whc/kBBoJqTx2tVEAdoEpAEpWfXsH4M8xBizetkkSWka2W/zhn1B79l3gq2Xkh554F6XA61E98k79hK7hHW3frB+El7XtyUmLfLpPfOOLRN16j7+hgGpGL39L+sPDYouE/dCMKQvUB7iBfk9sI1AGDQjOm0mBKNp7QHbJk02MDbSRrhtD1+JKVOXT4LByUrjgffEAzEwczAwKwlGz6lfxAislrHHrfDF0okPoJpgQNB2nxg3OLNhMm6BgfZhUiNREGz5DAT2+H1TtbTbxi0oKIwR6PX9W23YZH4TIBHiksouEiz9CEEYeflbU1wx3+ZbUrXQgDRIfdzlCk0wRl76xhSVVdq0WB4RogOti65jJgQjNp/JumN5RocluifBmDmTSaJxZBjHkRiYexiYlQSjuKImRoBB4K9/49+B8IVg9gFdEwxX6+CLj+UAEfbQILhxyhcuseHQorjh8hyFYOBLX8pcNLQ7Ls/F6w/bcLRHyoCrCQYOutJhuIddhORdtqDRhpNgzL1JwcUGn4kBYoAYSAcDs45gDD/3NyscdYf0X3hvQoCO3/eGa4IB1b5O67uHPYII5NrOdd74Iy9+HcSBxsCXB/yiEIzes7+0ZYI0uXli+Ufq1HX89ZhwTTBgxOqm1cs9tV2T7ck1wairqzMdHR32qqioiKu72xY+czIkBogBYiD3GJh1BAO7RnzA6jj8shW+RaXxQkoTDG1n4csLflqbAKNQXzzs0IDAh+2HLxx+UQjG0NUvg/xgGxKWnyx1YAeNjiMEA5oc7S/32CEj5GTJ+iM2Tq4JhtSPbu4nC44Bx4AYIAaiYGDWEQwYWvo6AFs6RYBi+cKNowlGSeWCuHA3Pv6hIfnB/sENx/PApd/aOL5w+EUhGGI8CluLsPxkBw0MKXUcIRgoT/vLfU3roK0rtuqKPwkGJxTBAl1igRggBqJgYNYRDGxT9XUAdlsIIfBt49QEo6isypuHzhfnN0h+2sBTx4GQRxzs8ND++j4KwUDbkF8ijYjUCbs2dDlCMKDh0P5yX9e32bZH23fAHkPy9BlnIq6Eu9tUJW+42kDVl4+Oy3tOYsQAMUAMzHwMzDqCEfYzL2w3DYRzyBJBVILRMDhmBWvjmv1eoS1bR4dvfOUNxwskBMMlBL6XC3YVIsxLquvi8sRBWBLunqFhCcadn9VOmEkAQ2shafUSUXF5tfX37cBpGbtkw6eCYODci7t379preHg4rt2+vqLf5NiyL9gXxAAxkAsMzDqCASGpBSQ6VR9TjVM5fR0dlWCU1y21gtWXJ86TEIGNsx58ZcJvzQv/COIlIiGSVh/S1br3mbg8Ow69ZMvUWgik1wQDv0qXPMWV5RdoOFwbFbHr6Dv/6/B0d342U0EwuE2VE6NglC6xQAzMLAzMSoIBGwXYDgCMWO7AzhIR9u5BUgLYqAQD6bTQho2H7OzAkonYQqBcn82HlNt/8a6tG47cds+vkHhwsbQjWhEIfWhRJFzvApmw0Yg9plzXFWnlEC/Uuf3Rm7YOnUdfs3lK3rIbBm3ByZ1BXYqKTdex12w6hJFgzKyXX8aXLseNGCAGpgIDs5JgCJmwwvjOz4Eg9GkapFPTIRiVjW2BPYSUB8GtiQX8Ow+/EiewpUy4OHrcpn9QT3kGadFxcY8ttBIOF/YYuLSfJh6SPoZgPCgnOBtEneKJuk8eJDb5wmnNiZQp5ckSD55JMCb7TPqdLvuEGCAG5ioGZh3BwKFX+tAoEYQ4KdNn3CkDv2zbOSuk9SmXEh7mQlMy/PzfbVopD2QDP2ALS6f9cZIm6uwSBR/BQDqcU+GSJ5QLYV/TtspbJrbvIs7aV74zSzedsCd3Sn2xRKIP2NL1g5ZD75qRNCAteikorGzkpY1FUzlnRMr/9NNP7X9I8E+S06dPe9sn8elyMicGiAFiID8wMOsIhhwwhaWR+oHtgUrftSmYCvDh2G78PbRxeK/BH1N9f1LNdrkQ2vjjK9pZWtMQSfDisK0F7cOmYdUur9bCV1cYlqIs7DgJ+6eLLx398uNl5zhwHIgBYmA6MTBrCcZ0diLL4ktLDBADxAAxQAzEYoAEY15shxAg7A9igBggBogBYiBzDJBgkGBEWlrhS5f5S8c+ZB8SA8TAXMDA7CEYD/6Wiq2Tc2Hg2EZOUMQAMUAMEAP5jIFZQzDyuZNZN04CxAAxQAwQA3MNAyQYXCKhxocYIAaIAWKAGMg6BkgwCKqsg2qusXS2l1+mxAAxQAzEY4AEgwSDBIMYIAaIAWKAGMg6BkgwCKqsg4pMPp7Js0/YJ8QAMTDXMDDjCUZ7e7vBNdcGju3lZEUMEAPEADGQzxggwaAGg+SMGCAGiAFigBjIOgZIMAiqrIMqnxk168YvPmKAGCAGpgcDJBgkGCQYxAAxQAwQA8RA1jFAgkFQZR1U/DqYnq8D9jP7mRggBvIZAyQYJBgkGMQAMUAMEAPEQNYxQIJBUGUdVPnMqFk3fvERA8QAMTA9GCDBmCMEY9HqPabz6C3TMnaJhGKGj3l1eal5cf+m4FrRuDCn49neuNAcXz9gbjy8wdape0l9TutE4TE9woP9zH5OhgESjBkqbIpKK0zFolZT0bA8pcm8/+L7ZsOdn826135MKX4y4DA8fnIpmDfPLK9fEFxlJcVT1s/L6mrM/710NrgeGuyYsnKSjfG1PettPaQ+cA+O9OasTsnqzPB43LJP2CdThQESjBlKMJZsOBoQBpCG0vnJvxhJMKZ+EmmsqbIC95Hh7ikTsvlAMHqXNti2/vjiGfPxY/vNG4e3B1df86Ipa/tUTYTMd+rfD/bx3OtjEgwSDAqDLGFgLhGMyzvWWILR2VRHDGUJQxTCc08Iz+YxJ8GYoRMDNRj5NxHNJYIxfnRHQDB+uHmG5GKGziGzWbCxbfkxP5JgZDA5LNl43LTsuGhqVqw2ZbVNpmXnY2bwyd+bgcd/E/gnWrooqa4zSzedMD2nfmEGn/7MrHr2j6bz6GtmyfojpqRygXfSXjx6KMgXZQ5c+q1dImnbd836I2zZtnNx6d0lktquUdN+8KYZuvKF6T3zjmkc3huXxn1Je3p6zLVr1+y1bdu2pGncPFJ5xhfx2c2rzOlNg6awoMBs7W01rxzYYj55/BHzwv5NZnN3cruTQyO9QR6r25YEdYRtxPktQ+ajC/vM+2f2mEvbh01lWUlc/YsKC8z+1d3mpUc2B3HfObnLXNi6OrCr8NV9bfvSoBzU98ruUftV/+6ph6w/wnDVV1fGlYc8ayvLzckNKw2ENpYaXj+8LTCchDGnr0x3iQRGlU/vWhukvXN0hzmyrs+UFhd5065pW2JOrB8wYbYb6GuEu30MmxJpB9y/PXvUEgztj3v0ta/e9MuPSZ/jwHGYLgyQYGRAMNa/+Z9AyA8+9YkZff0nK/BhF4ELftXN8QZvTSP74+JKGklX07YqbpIevf2vhOl0Hi6ANMFoP3DDm0/XsdtxZep8Ll++bO7du2evjz76KGF8nTbKPYiAGA2CWMi9dm89utXAqDIs3+9fOB2ke+3RreYJpc7XeXx4YV9M+qYF1eYvzxz2lgc7A5AWtzwQEJ1nonuQETf9yIqlRurqpv32xkkzsKwxLo0mGKJJcNP+9ZkjXkIj9f36uRNx+aJuXz51KGjPZ5cOxISjb9wywp5p5BmOS3f8+cy+ms0YIMFIIKSSDbwQDBHsq6//xbQffMGsvPyxFeCIU1hSFjNZL918ciJ8/H4Qt/PwK6Zt77NGSIDkV9HQEpOubd9V033yTnCtvv5XW0bf+V9bf4R3HX89Jh3a4ea97tYPpvv4G6bv/K9sPigXO1PC2p0LggEhBjU8vuqhVYDQFcEG4hBWVxHaX12Z+NJGGgjdX5/ebf5w+WCQx+8u7rfpQVb+59pxmzcE7Qv7Npq3jo8ZkAsp0/2yf3ioy4DE4BLhjbifP3HQ+kv40oXzbXmot15SQZoPzu0NtnuC+Eh5KHtBZXlMOk0wJB7adX3PeksQ4I82uP0jdYxKMKDtkXbARXqUgfppf9zTyJNC08Udn+cmJkgwskQwsNShX6KWscet4MbSiQ5b0DFimreeiSMeiIPlFiEYPqIg+aRrg4G8QU4KiyfV74uGdtsyod2QMlw3FwQD5KK1odbWCcsJItxAIoqLCm2Yrq8QDAjB754/ZVa2NMXEg7DHUoik2buq0wp1kAqtHYEWQUgGSIqkcV1NGFLZRaK1DwfX9MTke3rjoK0PzrzQZbkEY9/qLhuOer93Zo9NK0tEkj5dgiHpxf2vExOamzCiIvHozk3BwnHnuAMDJBhZIhjFFTV2kkfHFhQUmvVv/DsQ3CMvfxsTluzlG3npmyAdiEBY3EwIxvzlA3H5Sl2hDQkrMxcE4+UDm+PqA9sM+XIfG2iPC0f9NcFwtQ6+9n166YDNEyTGjfP28TEbHna4VVSCIaTlq6vH4spD+ZpI6fpogvEPT1qQJ+kf1FunJcHgxK/xwHviYSoxQIKRBYIx/NzfYiZxGbD+C+9NaAbG73vDyxY0msXrD5u2h68Exp49p982uMTWYuTFr73pkH8mBEPqp10hNTA21f76vrKy0nR0dNirtnZSs6DjZXqvbTDWrIi3W9CC/OLW1d76CsH43+t+WwO3jiLM//Tko978tvW1WaG9va/NG0fXK5kGY2FVhc3v6u5Rb34gV0IU9MFdmmDgBE23LXhGu5HWbQ8JBgWKDy/0Iy6mAgMkGFkgGNg14hucjsMv26UHnLwpcWCT4do+yLKIdhNpPtIlGGEneQ4///egrkPX/mzrKfWdblcTDNduAXXBTg8RvDD29NVPCIa2s/DFEz/RJvzq1EPe/HqWTB4sdWZTvAEu8olCMFYtb7JtODra7y0T5EnaiSO5pa6aYGApRfy1K3Ym39w4GRNOgkFBonHCe+JhKjFAgpEFgtF79p2YSVwGTO/WKF84sV0SYSsv/84SD+w0gf1G695n7FbTta9+H4SvfeU7b77IY64QDHzpS39qVwTvL0/u8oYLwXjzyHZvuM6rqLDQCnLYRegwuddCHVtCxV+7UQgGlm2kDTAU1fnIPf7xIXG0LYWuy6OenS1Ijy29SOueU0GCQYEi+KJLLEw1BkgwskAwsE3VN1DYpSEaiYLCiX9TlNUutn5YjoCthpt2zc1/kmA8+NeG75TI8pJiK3if37cxrv/Qn0IwsKvB7V/fMwQxBPJvzz/sjT/UutiW6duuijyjEIyOpjqb37ktQ94ynxpba+Ngm6jUWxMMnOch/tr989MT221d+w6xJQkzzkR89IO7TVXnjXsaeVI4uZjgMzHhYoAEIwsEAxoHt2PxDAIBggEDSgnHX02FdNR2rbP+El5QVGw2jN9PTjDWH7H5gLRI+jBXtqlmskQyOjpq7t69a68TJ1KzbwirU5i/XiLZs6ozrm3YBilf9jigypdPVIIh21mxVdWX35F1/bZM33kWSLNI/YskjIRI3pokhWlZcFiXtBMHjklaTTDeOrbT+ks4dpJI+90lotuHtgV5upoNSStEiwSDwkIwQZdYSBcDJBhZIBggDNXLYg9hKqmqtQQAp2XKANUPbLf+y7aft/4Sji2tQkASLZHU9W6y8RZ2+w39JE+42SAYudhF4gpItOXVg5OHb/kOokIcEbCpajDkixwC3ZenHECF8LBlG20bgjMpdP/77mEfgfwg1N2TN3HuhNiFuFoITTB8aTd2tVhigtNFddlP7hyxYVorgjh62YYEg0JF44b3xEM6GCDByBLBwMFVokkoKqsy2FkiRGFhz6QaH0eKiz80H5qYaLsKxElEMMrrltp8sKRS3dxjoP0IA8FMJRgQwI9tG7bnUuCIa/jh8h0kJe2PSjCw9VTyheCX465BGnDAl4Td8WgMpEy4chAYBD8EfUVp/HHkEh9Hcku+sJmofBB3fkVZsPtDwvR5HUirCQbi4Phz2WWCeksdQFDcQ7r0bhidDn9HlXTIkwSDAkVwSpdYSBcDJBhZIhhCGmSLqTxr7YUMUv9jH1hygHjBMeMPlkWwPCLHjiciGMgL/z2RclxXyhJ3phIM+YqHK+p7Ebw4Zlva57pRCQbS47RQyRsuDujSz8hzce2kLYRbJp6xw0Sn0ffullsYl4rNg8TTQh5+sKXQh36hDJdghKX1GaMiL9GcSDrpV93HJBgUKj5804+4iIIBEowsEIzuE28alzRA4Pede9eIcaceFGg4cKCVSwpATmCXIbtMEm1TRX5FZZXBD8uCXSdCUB78B0WXh3spD5oWNwzPwze+CuozdPVLbzjiXLp0yf6HBP8k+fDDD0Pj+spI1U/bYKzraLbLHSIQIfixzTNRfkIwwraxhqXFIV5CaqQ8uDj6O+xnZTovCHDYX+BnYCK4JR+XYCAdlkagFZE42kXdQUJ0/rjXB2kdXtvn/X8K2uGmk+euxfUx2gqUiT4d7VhmvnjwLxIcPCbxfa4Yi6Z6zogvD/pRWBEDsxsDJBhZIBhypDeIA2wsFvZsMPrci7CXqLSmwdT1bTY4qhv3YfHmmr8mGKL6x64LLI/I0sVU9glIQtui2qA8kALfX1ezXT6IBmw/YNSK5YqwI9DDyq2fXxnUF3n4SImbDnFwtgfKg0bEDefz7J74Ob4c3+nAAAlGFgnGdAzYXCjDRzDmQrvZRk76xAAxMJswQIJBgpF3X68kGJxkZ9Mky7YQz3MVAyQYJBgkGBlgYK5OHGw3hSYxQAwkwwAJRgbCRf5A2nXstbwT0skGPp/D9U4M93yIfK4368YJlxggBoiBSQyQYGRAMAikSSCxL9gXxAAxQAwQAxoDJBgkGNS+EAPEADFADBADWccACQZBlXVQaQbLe37REAPEADEwNzFAgkGCQYJBDBADxAAxQAxkHQMkGARV1kHFr5W5+bXCcee4EwPEgMYACQYJBgkGMUAMEAPEADGQdQyQYBBUWQeVZrC85xcNMUAMEANzEwMkGCQYJBjEADFADBADxEDWMUCCQVBlHVT8WpmbXyscd447MUAMaAyQYJBgkGAQA8QAMUAMEANZxwAJBkGVdVBpBst7ftEQA8QAMTA3MUCCQYJBgjGHMbB+/Xrz1VdfxVxffvklMTGHMUEyMEEGWltbY94LvCf//d//bWpqavh+pPh+kGCk2FHZfOmKy6tN59FbwTV/+UBGYK1sbDNtD18JrqLSiozyymYbZ1pe1ct6J8bkyKumsKRszvTj0aNHzb179+KubI7f1t5Wc27LUHAtrJrEaPeSeuvfu7RhVvd5eUmxeWH/JvPi/k0G7c5m/872vDRO+poX2b5bUFlu8bO9r836Z6s/1qxZE/de4F1pamrKelnZqnO+5UOCkQOCUdHQYjbc+Tm4mreeyQisTWsP2LzK65ZmlFe+gTOz+hSYikWtwZUKYViy4ajtx5LqujnTj5pgXLlyxRw4cMDs3bs3q+3//eOPmP976WxwrW5bYvN+Ysca6//0rrXWX8b9i6cOmb89ezTm+vPTh827px4yzz60zjTWVMWlkbT55tZXV9q2PjrSO2Pqrfvx48f2mz9cPhhcj20b9rYBYyNxXti30cYZal0cM45/eeawee/MHnN196h5eKjLVJWV2ri6TNxfUjjBuEv4wLJG26efP3HQ+kt4pm5VVVXwPuCdeP/99y3ZIMFIfbmHBIMEI+svZqYvdjbSl9U2WcKwePRQ0jaSYNwz/f39SfspnbFJl2AIKUnkaoGTTt2mK81sIBh6HL5/4bQpcObO9saFVuAjLoiG9C80DDq9e//d86cMNF0SX7u5Ihi6Dk888QQJhjPeun/C7kkw0ui0sM5M1T+bGozq5h7TfeLN4MLSS6p1mO3xSDBS+8rQGox8JRjf3DhpLu8cMU/uHDGvHNhivnzqUIyw2rOqM+9xP9sIBgjCyIpYjemNhzfEjEsYwfjowj6DuO+f2WO+unosJo1Pk0WCkdq7nI9zOgnGDCcY+QiqfKgTCUZqk9JMIBifPP5IHIE4uWGlFUz/e/1EXHg+YFDXYTYSjPGjO2L6/evnTtgxSaTBOL4+1u4MBPGHm2ds2kXO0hcJRmrvssZbvtyTYGSBYEAj0X7wphl4/Ddm6NqfzcATH5muY7dNff9WU1BUHPMSYuCTaTDmtwyYlh0Xg2thz4a49Au7N5glG4/HXYXF4euYqAvybBzeGxgxYkmg7/yvzeDTn5m2fVcNNCHZBiXqiDJrVqw2EPgtOx8zg0/+Pugn+JfODzd2g93EoqHdQT+iP4eufml6Tr9llm07F9hV+Opa2zVq+23FIzfsEkn/Yx9Yf+lXt2x3iaRqcYdZvusJM/jUJxP13fmYKSiMH0tdj6g40GnPnTtnrl27FlxXr141paXhY6nTZXo/UwkG2g1iIar20uIiL36ry0sNbB5ePbjFgKjcObbTnN44aOZXhBvylpUUm7GBdvPygc3BV/anlw6YNw5vN6c2rjTL6xd4y9HjgOUApEV5Lz2y2WzuXm7CCMa6jmZzdvMqs75zmTmyrs98eGGfef3wNgOjV7QJdiqwfXjzyHaDJQhdjr5fVldjTm8aNG8d2xmUC03P/tXdprCgIDSNTp/KvfQ1bCdwD1Ig+aO+8MNSB+xkcB+mwXAJBso+NNJrx9IlLiQYJBhZA3EqQNdx2tvbDS7tN533rbufsoJMDDe123X89bi6JSIYEJIbxu8HeY6+/pPBLhG3PUNX/uQtM5GRJ4gE6rX21e/N6ut/9aZvWje5ZuqWmc7z+jf/E5QDIY226H7BPfyqm+MN3rT2wU0jz0s3HY/rl/6L78eVIfFdF/2s26QJBmw23Ph4XvPCP0wYiUsHB7r8n376ya7xwlJ90aJJa3kdL9v3M5lgQPCL0IOAdftmzYqlgcCTONqFIIThoZsGhqM6nu8eRMBNh+eiwkLz9vExb/pbj261/trIE0aRvjIgvHX7EAd2Dz5jSBAfXx7wg6GsqxHw1T0VPynj+t71dmljY1dL0BcgUghHO9MhGCBTosX48cVYw3cSDBIM7wuXCmgzjZNLglHTtsoKIgjTlZd/Z9r2Pms6D78SfHFDKME+wm1jGMGAlkEE2+jtf5nyuua4tMhr2Y4LgfYBGojhG1/ZNKkQDMl/3a0fgnr2nn3HEhqEoU1ufdN9FoIhZa6+/hfTfvAFs/Lyx7bOiOPu8iivb7bh0FygD1v3PG26j79hdJ6L1x+OqSt21HSfvBNcmmygXPEXF2XodmmCgfqinN6zvwzKXv/Gv219lm4+GZMOeaSLA13+bCYY+AIX4aR3kWjB8dRY/C4SSeNbIkHfwTZD4hQXFcaMC8qRMLgQ5ChDEwAIMlf4Ll0436aDgIfAhBYBGhARgMjv4Jp4jR+2oEqZWC7AM77GUY74ww0jGNhZgd0QOi5sFHT/ufYmsEuR+KgftB8wfNVpsBPHNcjU2Ev1XsoBwUBf4hn9ifTfPhiLVcub0iIYyON3FydxUllWYsfz0vZh20Zto4Etq1KnqdhFovuFRp7pkRwukWSwRIKlBRGedX2b7QshwASRwPKAPIvrIxgNq3bZvNa99qMpW9AYl07SazfVbaqiwUB919z8p9FnZmgBCW2Dzj+Te00Gek79IibflrHHbXuxdKLLKa6oMe0HbpjSmvizEYor5hsR+CMvfROTTuehtSBRd5Eg//KFk9spUQ/RKg0/97e4MtPFga7vbCYY+DqtLC0JLi3oigoLrD/udX/gXoSHSzCQBwSNhIMI6LQI/+rK0SAcwl2fnYB4envjr049FJMWSyfYOlk/vzLGH+mw3AItAspF/rpMaBaESPzj6rEYTQPOcZAwpPURDGhUJD+xZQBhkP6S9mDpQ+KBHEm+IDeKagwAACAASURBVCL6jBHEwVZS6aOjo5nvEJK8QDCEiKGOax6QOZAMlJuOBgPpsLwjZeizQhLhRHAVtkQmfZWpS4JBgmFfvEzBlGr63jPvWCHpE4Zh+bgEo2lkv81n7SvfmSjnMKRDMBpW7ozrK61VyNZuFE0wQBp0fxQUFE4ShZe/jQnT8Xz3WHYSYucLh18mBAPaEjdf6R+QPzcsXRzofGYzwdDtjHIvwgZCHUQAF77M5WsZ4RDGrQ21MWOyTW2JhL2Fr0yQFqSHgBYh7ovn+kHAS710GAS4+D8y3B1XJmw/JNxHMD5TJEm+5LG8IWWI3YNoDOAPOw/Jc4XHPkMvO2TjC1/KAsFA+dCMwE9sYVAf+KdLMPQuFNjASNvzwSXBIMGYdkAuf+hJK+hg3FnbtS6pISBeFk0w8EUswhLLIq4gTvZypUMwINzdfPUSAU61RDjsP6DtiHI1bzlt8xaC4fvqR/79F96baPv4fZtG1wtaFhilop9BKnpOvx1cqI/0WZhNRCYEw6d1sqTGU9d0caDb2tzcbDo6OoJrOm2KpsMGQ7czyr0ItDAXyxa+L1dsaZU0ICVY5pDrtUe3GlwQ3hLHZzyJkzcfGuwItAAgFTCyxIVlDEmny35+30brX1E6qd6X9mrS4yMYMO6UuEImtOZGlnZ+e/5hG0/baEj7xJV2yjISNA2Sf7qutFsIhl7iQphoitIlGNAcSRl782zrMQkGCUbGL1DUFw9kQNT1IvDgQgAu237eu4MEZWiCodPhfkHHSKR2RCUYMKz0tRNLPFIX7N5AnJrWQesnYclc2J9I/kIwsLtG/LTbcfhlm79eskEcCG1Jn6hMN53knwnBQFrJR9z2R2/auoqfuOniQNLn0p0JBAMajHdO7go0GCIwIYigfVjbHnsWA/ryv07ssoJKBFYiVwwVZRywtACBnCgNwjSR+PXp3UF81Eny0W7PkoldFkjnIxggFRJf6q/JBHaxIK0mHbovktUV4b5lKCkzFVfKEILRtKDa9hHqInmkSzCkjSgHthySXz64JBgkGDkBJJZG8CXuE4YQ5vUD2+Pq5RKMwFBT7RyJosWISjBg3Ol7YWs711kBiu2liIO2dRx6KdKlt9VKn8CQ1Fcm7CyEPGibB2xFFX/YPvRfvGtW7L9ut5pqe5KiMv9x0ZkQDN8SVSKCIX0VFQe+Ppluv5lAMLRQRf/AgFNsD2C7AG2D7jdZYoCgOr9lKOmljxzXOzJQxi9P7gqMJrGVFBc0DSJotSGiGFWGaQqwy0XS+QgGCIq0QbQVv1HaChhvIr3uC+kDLFEkayf+BRNlKUjqol2pvxAMhMF4FvYhF7dO2pqlSzBAqKQM155E1yMX9yQYJBj2Bc0FALHsML+l30AQYalDBCQ0HAWFsXv0NcGAUSXC8U8SSRPF0DIqwYDQ9/WPNjL1Gaz60iTzE4IR1h7sCpE26zMmYOcAf/SjT9h3Hn3NpssXgiF9EQUHkiaX7kwkGOgvCFQRRld2x245xjKBhOFMiyj9K1oB2Hn4hJxsx0T+mmBgt4iU6SsPW2IlPFsEQ07BdA1OfeUn8oNmQ19hcaX+mmD44qZLMMS4FeX48s2lHwkGCUZegVKfNVHZtCKmbppg6J+d6S9zfMWn8kJFJRgQ3CVVsUZxKEef44CfhKVSdrI4QjBw9oYv7qpn/xgQBZAwCQdhENLRfuB56y/hcIeufGHjhBKMBY02DuxLdHrfvbZB8ZGaZBoMX57wS4QDneb27dvm7t27wYUfK1VWxu9i0PGzdT9TCQbOnBBjT3zJY4eH9AkMO0UYil2AhCVyQRgkHewBfHGhQZA4mmDo7aK+MzlwdoakyxbB+ODc3iBPaE3SXf7Aj8akXuLWhBxCJuFTQTBwGJnkr7U0vjHIhR8JBgmGd0LIBRhRJpYWRFDiVEhdjzCCUVK5IOZAqqql8dboOh/cp0MwcEKlm8/Iy98G9QUp8J0+6sZP5VkIBvpBDEclHUiO9A8Ig/jjTAzxx84N8RcXJ45KONwwggGtkMTDKauSPsydKoKRCAe6LtxFEj+BJRM4+rjw63smdjagTzua6qywuns28Z9hQVRkHKDtkDIhvMVf3K7F9TYc8TTBwEmcktZHTv705KM2PFsEQy/n4F7q6XN1O3U4TvuUeotbW1nuzUvCs00wsAvof64dt/XAqaC6jvlwT4IR/36mMi48ByODczD6zv8qOFxr4lTIiX38UJFjF4IVrsGug9g9/mEEAwO2sGejFYywl3APoXIHNR2CAbsGsZVAffWSAwSiW0a6z7YP7vxs0Jay2omTE0EK9O4ZtFmXIUskIAjBcesPlphwXodefkpEMJCfxEU9sOwTZhCKuJkQjHRxoNtMghE/gYlAC/uixS4OOZcCWgx9yqVessAWUa3hAJHADhEIfW1IifGQJRKUja9q0QysbGmyGhOplyYYSCtLFgjf0jOhBcRR2np3BMKyRTBQNxHMaD+WjaS+qM+CyvLAT2w0NN7kPhcEA9tZ0T+wC9HjhL5JRgil3tPtkmDEv5+pjAEJRgYEQ85GkC/lQDA+MNYUv5axSzHCE4OSiGAgvPPoLUsycJqkHkhs1ZS8k7n6OG29/CLpgh0wqr4wSi2pCv/fga5HKveaYEiZIvTlWWsvJM+lm07EtBH56N06ICuSPkyDgbxw4qnEc10YtUp5cDMhGOniQJdPghE/gYkgDyMY6L/LO9bYL1+tOYCaHwdeSR5wYRCKS/vhz556HI6smzzPAvGw/CAkBs9y5gPuXYIBoanzRjoxxNT+2SIYqDd2W7g7XkCSXD+QD91Ouc8FwdB9oe9xDoZ7IqvUM9cuCUb8+5nKmJBgZEAwYCehhZ0WYhDW2KrqGwQcAS5xm7dMnuAncWHwiFMqJY7eiYLjwcU/meuz70C+qJebFv/ZcH8AJvVJ1xWCgaO+8cMxt8y+c++GnhuCw67k9ExJh/yW77oU/PBM/IrKEtkqFATEYeTFryc1Snd+DuoRRzDWH7H185EsHHEelOk5ByNdHOh+dQlGfX34j+B0ukzvZ4INxu89f1OVduMkRxHicPUXPJYFILQkXAsz3ONwK9+BTjjfwU0DgX1h6+rgh2eSD8qWeoiLn5dpQoK4IDWjHZNLKPqYcWy/RRzsxpA83nrwPxO9TINzLRAPu1UknrgwRtU7MKR+cNEO7FDB8o7E1246NhjX1HKUzkvuv3xwxog+3EufAyL1gw0NzvJA2/JxWUTaA5cEgwTD+wJpkEzVPQQzzq9oXLPf4JRM2FzoXRFTVW6UfEWDIcdro36oc8PgmHenRpS8w+IKwZAfvkHbALKE5ZlEyxWSH+JLv7qGshInn9yZgAO3vzTBwE/WcP3nP/6dRm7amfKM7Zk42hp/OQWhgDDzkQPdHmgnsB0W//5oWxRvFK3j+u6RBmndU0Z9cbPlB0LV2VQXlIvlHRwgFmZ7ka0yZ3M+g4ODMT8glPejqSm/zujI5zGgBiMDDUY+D6xbN5dguOFT8ewSjKkog3mm92Uh/Xbo0KG4SXS2EQxpK93MsDLX+m/VqlVx7wZIRkND/hmh5uvYkGCQYEyZ5ocEgxN6vk58rBexSQxMPQZIMEgwSDDmCAY4oU79hMo+Zh8TA5MYIMGYI8JFdjrgPynT9QLIzo+uY69NW5nT1TaWMzmJsC/YF8QAMeDDAAnGHCEYvsGnHycFYoAYIAaIganCAAkGCQa1C8QAMUAMEAPEQNYxQIJBUGUdVFPFhpkvv7SIAWKAGJg5GCDBIMEgwSAGiAFigBggBrKOARIMgirroOIXxsz5wuBYcayIAWJgqjBAgkGCQYJBDBADxAAxQAxkHQMkGARV1kE1VWyY+fJLixggBoiBmYMBEgwSDBIMYoAYIAaIAWIg6xggwSCosg4qfmHMnC8MjhXHihggBqYKAyQYJBgkGMQAMUAMEAPEQNYxQIJBUGUdVFPFhpkvv7SIAWKAGJg5GCDBIMEgwSAGiAFigBggBrKOARIMgirroOIXRmpfGMXl1abz6K3gmr98IONxqFrcYZq3nDYdh16y+VY398bkW1RaYXrP/tL0nXs35lqx/3pMPI5hamM41/qpurzUvLh/U3CtaFyYU8ysbV9qzm8ZMi88qA/qVVFaktM6zTU8JGsvCcYcJBhltU2mYlGrKamq5cuYw/GvaGgxG+78HFzNW89kNBbtB1+weUmecJesPxKTb0l1nTfe2le/j4mXbOJgeH4RkPKSYrO8foFZVlczpeOI/P/vpbPB9dBgx5SWFYaxosJC8+mlA7YeUh+4i2qqclKnsLrOdX8SjBwKmFyBb91rPwZCBl+xuaoDy51nskUw5rf0T5KG8ftm1bN/ND2n3wouVzNSUFRsQGbkGnnx6yAtCUZ+EYao78ejI71W4NZXV07Ze50PBOPC1tW2rd+/cNr86tRD5o3D283rh7eZSmowpmzso2IS8UkwSDDyCpDpgHimpskWwWjd+4wlGFVLuyON58DjvyHBmAVzwFwiGJ88/khAMH64ecYUzIKxm6nzVyr1JsGYgwClBiM/vlazRTB6z7wTkIT1b/4nErnABEGCkR9YSGWyThRnLhGM/71+IiAYvz3/cGS8J+pDhmX/XSDByBLBwNr20k3HTdfx183QlT+ZlZc/Doztqpt74l6C2s61gYq6cXhvXBhAXj+wPQiv79/qDUec2s51puvYbTP45O/N0NUvTf9jH5j2AzeMqxJHXNhbtOy4aC8IIqzPr7n5T+sn4b708uIt7NkYlIG24YJhINoi4dpdPHooyBvq+xWP3AjU9u0Hb5rS+fWmvG6p6Tz8StBPHYdfNkVlma2bwnBR6l/RsNxbH1033C/ZcDRIs6BjJCZ+QWGRaVp30HQde80MPv2Z6b/4vlm+61LQh24e7rObZ9DvY5eCfAae+Mi07n4qpq3JCMb8lgHbroU9G2w9C0vKrD/aLcscGFfpB3FRB7ee+jkdgpEqDgQDtV3rEtZB6lPXuymof9PI/rj4Y2Nj5tq1a/Zqb2+PiyP5ZOJ2NtWZs5tXmdObBk1hQYHZ2ttqXjmwxeCrGcaEm7uT4+vQSG+Qx+q2JUEdYRsBY8SPLuwz75/ZYy5tHzaVZfHGiLWV5ebkhpVm/OgO8/Fj+wOV//H1AwaGlb42PTLcHZSD+v769G67bPD0rrXWH2GnNq70pkeeUct0l0i6l9QblIf63jm6wxxZ12dKi4u85a1pW2JOrB8wYbYb6GuEu32M/kM75ILmAvYWf33miPWTsLCyff1Hv+wTCrdPSTCyQDAwIYrQ1gZ2ct9+4PmYFw5CC2HQJLgDgufh5/8ehA9d+7MnvMAMPvVJEC75u27D4FhMOgg+N07YM4wF3ToVFpcGOw7C0nSfeNMUFBbHpBu9/S9vmRCG6279EBMGguSWGeUZ9ZO6pbIbAoRE4mN5Qcoqq10ckC4Ji3HH7wekROL63PVv/DvIt/vkHdO652lbhs4HpEXSJiIYtV2jZsP4/SCP0dd/MpWNbTYd6qnzTHTvGnlK2eJGIRhRcSA4Xn39r7buUq7PBeFFW4aufBEX//PPPzf37t2z19mzZ+Pi+PKM6gciIEaDIBZyr91bj25NqJqHXQDiv/boVvPEjjXePD68sC+m/iMrlhpJp8vC/bc3TpqBZY0x8dEu+Ltxw559/ZBOmZpggAj5yoPg99mBvHNyVxD/6+dOxLUF9fvyqUNB+GeXDsSEg7D5yvH50chz6kmDD0thfiQYGRKMpZtOxEz2+LKHJgFCVyZMqLD1AGRCMPAVLAIFBAWGmhBmKG/k5W+DsEVDu2PKg1YCQk8uEVwQ9OInbl3flpi0qLeo4FEuyuw+/kZQniYRnUdejUmnw9AnsiwjdYch4tpXvrNtKanKbMub9DXy1X3tuw+E94PdGwvahx/ELzAwdJT6QThCy9J3/ldW0CMskVZJCMbIS9/YfFCvgUu/NRCySL/qmT/Y+oURDJQh9UA/ltc12zRoDzQ+Ml5wbd+O34/xRxi0IL4+EL8oBCMqDoCJoB3j9xPWAXWB8am0uW3f1bj4uSAYEGD4Wobx4EuPbI4R6CAO0oeuK0ThqytHrWCE0IWW4Q+XDwZ+v7s4qaVprKmy8VDmB+f2mhsPbzAgISJEf3zxjFlQWR5T5lNjawMSAyIj+SL+28fHrD/CQJTcOqZbpiYYUje06/qe9ZYgwB9kwS0zXYLR17wopj3oC5SBpRK0T1808iTBiAOeC8Qoz1CVTpW6NFk9iivmW80FhEtN26q4tkG7sfyhJ2P8MyEYq6//xU7aJZULYvJFfbFkgSWIRHUXgZTKLhJsaZWJHwQGbZa8QQqsNmL8fsy2VyEYA5c+DOLr7ZHyFa81Ca7WRcpI1cVyEeqJcUiWpm3vs7ZNonnBOEk7QSrmzSuw+dS0DlqSAcIQlr8QDOQDrYOLBxAFLL9Ieh/BaFi1y9YD41S2IP7LVdKL23/hvSAN4otfqm6qBCMdHDSs3GnbgjM6EtUJfSX9j+U/N24uCAbIRWvD5FZuLCfg6xvCDSSiuKgwrp6otxAMxPvu+VNmZUtTTLylC+eb/asnjXG1JuDgmtgl1dMbBy3JwDkPbr/Ic1QbjHTLdAnGvtVdtk4wuHzvzB5bX1kikjqmSzAkvbjfPNDcvHVspy1bwuiSYGQVFLkkGFoNjgOOUgV3JgRDBHo6wkTqF4VgtD18xU78rmYE+S1ef9iGL9t+3vaBEAykl3JFcwJbDPGDIIZgSabKl/hhLuomAkoTLNjE4Mu7ZsVqWyYIDuJCSyH5YZlG0vu0KX3nf23Dw4SlJhiJNB1SpkswNMmBdgekTOImcqeDYKSDAxwkJn0K+yRpA7bIYkz0mLeMXbJxsRQjccXNBcF4+cDmuHrANgPEAdfYgN8ORBMM155A2qNd+SL/6uqxuPIQT5ManU7fRyUY6ZapCcY/PPUFeZL+gSZF15EEI7+Evx6bqbrnEkkGSyT9F+9OTIrj9w2MA1MdpEwIBpYAZNLuPjFuom5LRB2jEAyc+ijlFRTEf7HB4FDCIcylD4RgtIw9Pun3gEyAmEk8qQuMEuGHL3xoCaJcWAKCNkfqIVqCyqYV1g8CTcoUUoMlEPGTegw/9zfrJ2Fw9dd4mLZFCAZIoE4bdq8JBsqV+qPviitSPzBpOghGujiQZSekl37w9RM0XWh/mIaorq7OdHR02KuiosLmJ/lmw9U2GGtWxGsC9dLCxa2TpFWXLQQDKnzt77tfWFVhBfLV3aPe+CA6IrTLSmJtnSTPKAQjkzI1wcAyjpSvXdnl8acnH40JJ8EgwYgBhAZNvt7nUoOByRCTYqoCRfowE4KBXQ8iiMSFgSm+wLH7RMpI5IowTWWJRL7sIZTD8hTNBHa0SBwhGFqzI+UKmUBcEUBCOvSZDtK+ZK7YjYh2B8QLeWP3h6RFfeCHJQfx0/0lbcCSgbRBu9XLem26ZTsueOOI4NR2FjoP914TDKmTuO7uFjetfp4OgpEuDsRuA8trqDOOLpc2woXBKvwFG9i9o9s23feaYOBr3C2/qLDACnsYe7rheBaCoe0sfPHgt2p5k83v6Gi/Nz8QGSEY7SHHc0chGJmUqQkGlm987RJ7ECxl6HASDBKMGEBocOTrfS4JhkyKYV9dYX2WCcFAnrAJkAlfT9a4xy6NZFs1pd6pEIxUSJRoBGAfIm2eJBinrJ+UqwW0SzBgdIl/aUS5yusnjCADg0z1FSx9JPXDls3GNfusgIMKH/WFHYb0o9Z0SFvgajLQtu+abZOOIwSj5/Tb3nAd180T5Q/f+MraeqDOqWoxpoNgpIsDbFWVvoW2S+xfZEywXKK1T7BBcftpOp81wcCXvq9sEfa/POmvqxCMN48kJ/xYQpH8Hh6atGfQ5WKrqsRx7RokXhSCkUmZmmCgTClfu/ogLO1PgkGC4QWMBkm+3eeSYGgBFqVfZD0fAteXTnaD+LepToIUEzbORwBRkC9wTOZiROnLG34i6FMhGLIlFlqSsPxEgIA4SZx0CYakT8ddsvG4FWaBAen4fYN6wMgWdcRyjRiDgtjoMmSbMdqr/eUexEfaiW2/4q9dIRjYvaH9w+41aUG5WGaDwJVywuri5jcdBCNdHJQvXGLbA+NNWQoSmxlgVS8/+QyX3fZO5bMmGDgTwy0L//wQYf/8vo1x4YgvBAO7G9z07nNHU53N79yWIW987BaRMpsWTJBiN58oBCOTMjXBwHkebj3w/OenDwf1dW1KYJOBdoRtU0V8hLvbVN0yaOQ5KQPcvsm3Z9pgZGCDAUEiwgBW9qkObs+pXwTpwoS2CLtkBEOXh69dSQdBp8PceyEYmhC4ceQZdhXSRp/RIXZGSLg+QyMXBEMLbDHA7T37TnBIFuqI8xXkbAZXUyFbS13iIf2gtyNjm6v4azcTggFiIXmJESrqvGzbOesv4a6bCcEIyCm27MKOyGNjI2WliwOkF20Ftm+jTbKkGPTX+H2Dw9a0v5SpXZx7cffuXXsND/uFm06Tzr0mGHtWdcb1PbZMirDHoVi+MqIQDE1YwjQe7556yJaJw798ZR5UZ0WEkRBJl0mZmmD4dnFgJ4m0310iun1oW9AO7M6RumhXDtAiwZg5BEKPn++eBCMDgoGTODEx4kqkDXBV3doiX9agZXD0GQhRCAbSr3nhH0FdkhEMiQeVvJQb5upDuvShVBIfSxnSB3qXSS4IBuokQl40OqJyF1IldYXqXtoAV4Q0wrEEpcNwL8QE4T6ihThSdjoaDE0w8BUvQhnlJTPklbqHacTctuhnjcVEp7imiwOUtfLy7yYw8uDgMJyjAn/R5MlYTWwP9k+uudhF4gpI1PnVg5OHb/kOv0IcEbCpaDAQX77IIWDdkyhx4meyHR/IY33nMktC1nXEnpuCcPdKt0xNMHz13djVYutxxTFafXLniA1zSZBetiHBiB8vd/xmyjMJhuflizJ4wbr5A5LRc+otA9W8pIdtAL5G3a9lrRJGOJY6kAbHaotghmDxEQx8aWOC1lslUaZe68bSjdTB59rdL3d+DlTyiX7bDvsEW6fx+0bvoNDbKie+Sie/riRN85ZoNhi++kbxE1U++g+X9K1ojcTfJXboTwmDoJYjtrFsAcNDCdO7Idx6ZYtgIF8cxy1lom+lHW6ZeM6EYGijYSzNgSTCEBaXLjNdHKB+MOqVtsDFkeDw1wQd/mFLT4ibC4IBTcVj24btqZ044lq0F76DpFBPXFEJBo7HlnxhvyCHRc2vKDPYiSFh+uwMKUvcJbWT20P/8sxh07W4PvScDqRJt0xNMFAvHH8uO1twpLecLgpS5B4Mtq2vzbZFp+td2mDTIU8SDBKMhAJMQD8dbi5tMNC+qiWdMV+bmCghXGW5As8uwcAhTu4XtY0/ft+m9REMEWLIF19+snMieH4gVPWZD74xwP9RdHx9DzW2m6Zp7YGY+Kirre+DMjXxQPpcEQy9c0QbnWrNELQDbhvxDIKo+0JrEeCPvodNgS8t/GRsMtVgSP6dR2/Z+iQiNpkQDJSltz7r9rsaq3RwgPxjdo4EW7ontlrqg9ZQrhjrSvu1mwuCIZoDuKK+F2GPY7Z1/fR9VIJRVFhoxP5A8hdBLc+wa0j259DfnH/YCnBJJ66uH+7TLdMlGJK/W1/8n8QtE/UXzYmkk37VfUyCQYIRBx4XTNP1nGuCgXbidEvZGaInaNzjq9B36BKEvAhhSQOBBqNN0Yr4NBEgKyLIJJ240G7I12Gy/scR0vhBmksUfAQDeeGHVW59US6IkntiJeJLXNguSF2EVOkDueS4cByBLvEycaHml/7A4U2SV3AU9QMVPX48Jv6ui7qJyl7ygQuygh+1ufH1s4wLjm3X/mH32n5Fa3okPrQGYhuCOuhttRIHriw1iG2DDkvlHn2DY71lfKTdsnVY5xEVBxNpC2yfQmOn85Mj1NF32t+9//TTT+1/SPBPktOnUz/Yzs0r0bO2wcBSg5AFEYg4mRPbPBPlIWnCtrH60mJp5M6xnV6CgHxACHzptB80Hziy+3+uHbfLKlJvHU/u0ylTH6R1eG2fgbZEyhAXh5FJGa4LzYpLRtCnox3LzBcP/kXyqfMvEjcPISn4uZobxuf8IidcIslwiUQDGup0qNqh+gWpSPRFhnQQIDhfAVsnk20t1eXgHvGhRsdXJdxkZbnp032G6hxLPBB2pTUNs/QFLzA4pAvjiJ0Pmf7tNd2+zud0sxUHmmCI6h+7LrA8giWAqR4TCH3YdsDAFEsHYceRZ7MemZZZP78y6B/UOxUihDg9SxqCNkIjks22MC8SjKwCKh80GAR1foGa48HxSBcDPoKRbl5MRxzOdQxQg5FFDcZcBxPbzwl1pmOABIMYnukYzqf6k2CQYGRVo5RP4GZdKCyiYoAEg5iJihnGD8cMCQYJBgkGMUAMPMDAmU2rrNEibBMoPMKFB/uGfZMMAyQYFC6cRIkBYoAYIAaIgaxjgASDoMo6qJKxWobzy4cYIAaIgdmPARIMEgwSDGKAGCAGiAFiIOsYIMEgqLIOKn6ZzP4vE44xx5gYIAaSYYAEgwSDBIMYIAaIAWKAGMg6BkgwCKqsgyoZq2U4v3yIAWKAGJj9GCDBIMEgwSAGiAFigBggBrKOARIMgirroOKXyez/MuEYc4yJAWIgGQZIMEgwSDCIAWKAGCAGiIGsY4AEg6DKOqiSsVqG88uHGCAGiIHZjwESDBIMEgxigBggBogBYiDrGCDBIKiyDip+mcz+LxOOMceYGCAGkmGABIMEIzLBqGxsM20PXwmuotKKyOmTgZLhnLiIAWKAGJj5GCDBIMGITBCa1h4wG+78HFzldUsjp+fEMfMnDo4hx5AYIAaSYYAEgwQjMkEgweDEkmxiYTgxQgwQAyQYJBiRCUZ1c4/pPvFmcBWXV0dOz4mHEw8xQAwQA7MfAyQYJBgkCMQAMUAMEAPEQNYxQIKRBVBVNLSYw/mzjQAAIABJREFU9oM3zcDjvzFD1/5sBp74yHQdu23q+7eagqLiBINWYBYN7Tbtj940g09/ZgYufWha9zxtKptWJEgzzxSVVZmWHReDCzYQBQWFpmbF6qAOQ1e+MP0X3jNN6w4G/vhKqB/YHsRdsuFownybt5wK4tX1boqLt7B7g1my8XjcVVhcGhfX92VSUl1nlm46brqOv26GrvzJrLz8sek49JKBNsQXX/wWtA+b1r3PBH2DPkI/oy4SHuamPybzzNjYmLl27Zq92tvbk5YXVg/6z/6vNI4xx5gY8GOABCNDgtG6+ylr8CiGj9qFQPWBr3zhEjN846vQtBD2vnTwq1rcYdM1Du8NBLYuU+5bxh4P8oAgF7/yumZvvhD0EgcC3S0bpEDCtZuKkWfTyH6z/s3/eNMjr/YDz8eVB+LSe+ad0DQ9p98KJW/pjom0+fPPPzf37t2z19mzZ+PqJ3Hp+icW9gv7hRggBkgwMiAYNW2rrACEAF15+Xembe+zpvPwK2bo6pdBGGwV3BcNdgvr3/i3Tbv6+l9M+4Ebpvv4GzH+DYNjcWmRlyYYa27+cyKf8ftm9fW/moFLvzUjL34d+C3f9USQHhoRIQVt+6568+w88qqNU1bbFBdn2Y4Lpu/8r4NLE6NkBGPpphM2X9QBmougrSfeNFJ3EAm3j6T/kGbtq98b1A9EaeTlb21+PvKW7pjo8kkwODFqPPCeeCAG0sMACUYGBAPCWgR3Xd/mOCEJNT2WLlxwgkhIuqWbT8aEl1TVmtHb/wrC1732o/crXRMM5DP83N9MaU1DTD61netMbeda6zfy0jdBnmtf+c766XpJmSAP2t93n+oukuKK+VZzAUIF4e/mB+3G8oeejPFvWLXL9g+WewoKJ5eZCgqLguUk6T93OSndMdH1IsFIbzLRfch79iExQAyQYGRAMLQK3xXwYS8X7CdEOOJr3hcPdhgSBzYIbpwYgjF+35RULYyL46aBEJc8kV6HgwRJWPOW0zFhOp7cp0owdDtSyVfyFw0MSI/PxqOmddDW19XIpDMmUq64JBicGAULdIkFYiB9DJBgZEAwtNCGcWdt17qYr20fMLUKH0sEE9s9x033iXHTffJOcPU/9oEVoFiacPPRBKP3bPzyghsfzyBAQiKw1KDj9Jz6hQ2D1kGH+e5TJRj9F+9O5Dt+30Dz4MvL57dh/H6QDlqPmP5RfSRtGXzy9zH5pjMmbh3q6upMR0eHvSoqeFqp20d8Tn/SZd+x7+YKBkgwMiAYxRU1MTYTIvRAHJZtP+9d3sBODomXigt7DheMmmCInYUbx/cMGw2UiaWXyfAC2wbs0pj0D58EUiUYYmOx7tYPKeWLsmH/kUq/SByUoeuczpjo9LwPH3f2DfuGGCAGomCABCMDgoGOhmYAdgK+XRKjr/8UbBHVAwJCIMKx59RbpmXsUsLLZ8OhCUbjmv0xAlaX5d5rg8v5yweCdAt7Ntr6NK7Zl1JeqRIMEBm01SUBbr30c/WyXlsfGHom6x/sotHpcR91TNz0fOYkSgwQA8RA5hggwciQYAgIcRbF/Jb+4EwLMZiEcIWaXy8P4NwLIRi4l/RRXE0wFq3ek3Ie2v5DdmBgZ0hQn/H7XnsHX71SJRiyEwREy5ePz6+orNL2j28Hji9NmF+qYxKWnv6ZTzDsQ/YhMTB3MUCCkSWC4b5EshwB4a13OugtozCCdNOl8pwuwUDeg099EghwCH0cAiaal/6L76dcl1QJBmxKhEz5tr6GtVW28OLsjbA46fiHjYmbF869uHv3rr2Gh+MNbd00fJ67kyjHnmNPDPgxQIIxRQRDH24FQiAAhDYDwh2CF65vl8Rk3MntmeIHNxOCAY2HCH3Yd8i97/ROXaa+T5VgYPlC8u87967tA50X7mE3of1wnoikS3TSp96+qtOH3YeNiRufu0j8k4XbT3xmPxEDxEAiDJBgZEAw+s7/Kjhcq7Zr1MybVxAISTm2WzQD2BEhYTIQWkAPP//3GA0H0i/oGAmOHQ9bWsiEYEBrIbs0RIhDY+DWUerqc3X9kx20pQ/lgs1JUenkjozy+ubgTAv3oC2cNip1w3ITjlzX9ahY1Go6j94KtC8uAUl3THT+JBicNDUeeE88EAPpYYAEIwOCgXMsRBDCDYwaH2yxFH8YKfrAif+WSBy4ICRiFCn+8POlzYRgID8IYSkDLg7+8pUjfj2n346Jr9O69/jfiKSDW7Wk02psJC5IgyVgd34OjgTXaXCPXTgSP3DH73v71yUYmYyJ1IEEI73JRPqPLvuPGCAGgAESjAwIxrJt5wy2YMYIwjs/B8/QPkBIJnrRoAmQ5RI3D5y8GWajUdnYZstMx1AUGhdd3vyWiR0lYXW1hqAP2qbTuvfNW8/EtRlna8DGw42LZxz97WoopB6ol5xA6qYFScHZIe7ySqZjgrI//fRT+x8S/JPk9Onkh49JnelyYiUGiAFiYAIDJBgZEAwBUen8+mBZA1tGG1buDGwkotgH4E+j2C6K9Di5E8+S92xyYX8C7QtsM0AqsESSSvuwswTbdUHI8CfVsB+26bwyHROdF+8pMIgBYoAYiI4BEowsEAwCLzrw2GfsM2KAGCAGZjcGSDBIMFLSInAimN0TAceX40sMEAPZxgAJBgkGCQYxQAwQA8QAMZB1DJBgEFRZB1W2WTDz45cVMUAMEAMzDwMkGCQYJBjEADFADBADxEDWMUCCQVBlHVT80ph5XxocM44ZMUAMZBsDJBgkGCQYxAAxQAwQA8RA1jFAgkFQZR1U2WbBzI9fVsQAMUAMzDwMkGCQYJBgEAPEADFADBADWccACUZEULW3txtcZNMzj01zzDhmxAAxQAxMHwZIMEgwSJYiYoAT1PRNUOxr9jUxMHMxQIIRUbhQgzFzwc6JimNHDBADxMD0YYAEgwSDGoyIGOAENX0TFPuafU0MzFwMkGBEFC7UYMxcsHOi4tgRA8QAMTB9GCDBIMGgBiMiBjhBTd8Exb5mXxMDMxcDJBgRhQs1GDMX7JyoOHbEADFADEwfBkgwSDCmTIOxaPUe03n0lmkZuzRlZXCymJgsKhvbTNvDV4KrqLSC/R3xvSaOpk/osK/nTl+TYESciOayBgOCq2JRq6loWJ6SAOu/+L7ZcOdns+61H1OKz4kn/Ymnae2BoK/R3+V1S9nfEd9rYi997LHv2HdhGCDBiDgRzWWCsWTDUSvESufXJxViJBjTN/GQYExfX4dNpvTnGBADsRggwSDBSEoU5KUhwYh9eaRf8sGtbu4x3SfeDK7i8uqUxzQf6s465C+uODYcm0wwQIJBgpGyMCLB4GSTyWTDtMQPMTC3MECCMeMIRoFZ0DFi2g++YPov3jVDV780WIpo3f1U4B/2Atd2rjXNW8+YxuG9XkJRP7A9CK/v3xoTvnj0kGnZcTG4Bi791i6RtO27Zv0RvmzbuZh0qIe7RFLbNWraD940Q1e+ML1n3gmtS1gbovhXNLQEZQ08/hszdO3PZuCJj0zXsdsG7SsoKo6rq857Qfuwad37jBm49KEZfPqzIJ+F3RsSpkF6EDD0BcYHz7BXgYEr8kD5GKOisqogDBoH6Vfx03WQe4wL4iFv8RMXdVqy8XjcVVhcGhdX0mi3oLDYNK7ZH7Rv8KlPzKpn/hBoQFCmjufewwZn2fbzpu/cu8FYdh1/3TStO2gKCgoTpkM+586dM9euXQuuq1evmtLS1Orq1oHPc0tQcbxn5niTYMwwgrH21e+tkIdBn3v1nPqFgeBwX0hX2Lvhw8//PcgLwliHjd7+V1wZbpnyrNPhXpfZfuCGNx8IfTddps8Q5FInnwuB6CsDghnEx5cGfj2n30pITta/8e8gbffJO6Z1z9PefEA2UPbCno02fOmm4976QGCvf/M/QTyQMrfOQ1f+ZPPQdU7FyHN+S79Z+8p33vTIa/i5v8WVh/JBJHVZ+n74xlembEGjN53U/aeffjL37t2z16JFixLGl3R0Z6aA4bjN7XEjwZhhBGP09Z+CCX7NzX+a3rPvmLa9z5qOQy/FCIu+87+Om7S1sPe99GEEo23fVQOBiWv19b9a4YIyxB+uT2hLmSKE1t36wXQff8P0nf+VzQdh+NL31Skdv5q2VTZvCOeVl38X9FHn4VcCbQ/Kg62CL29og6SuIHKdR14N+nbk5W+tv6+dkpcQjJGXvrHxMU7Q/EjfQUswEb/ASPzV1//irQ+0LVIfaJKkHHGX7bhgMA64INwlbjKCUbW4w8ZFGpAJaeuqZ/8YhGGspBxxsQ1WykDf9px6y6zYf91IGoSNvPi1mTevIC6t5EGCMbcFjuCA7tzAAQnGDCMYmOSrm3s9E3iB0V+0xRU1MXFE2IdtGQ0jGHoiSNcGA4IHAlar7hcN7bbCCtoNXU4m9yBEIgTr+jbH5Yulk5oVq+P8G1btsun6L7wXowUqKCwKljkk38qmFXHpUWchDIgHIgiyo9tSXtccLCWIH8iK5FlStTAmLuJgCSwIH79vkp1tEWUXCQiNlIslFqmPuNBuQJMjz3Chmdgwfj9IB8JVUl0XE778oSdtnks3n4wJ0/mQYMwNwaLHnPdzd8xJMGYYwUj0sjYMjtlJHjYXOm6uCcb85QMx9UHdRCD7NC667lHu9RJHaU1DXJlheeHLOyAGt/8VQ4Qkfk3roO1bkBjx1660B/m4tiw6ntxDkIughzZC/OGCjIlAhy2IDvPdp0owdDtSyVfKwlKW1BUaEPEXF/WV5ZwwjQzikmDMXWEjWKE7dzBAgjEjCUaBqevdFBjaQbXdc/rt4Bp88vdWCDSs3BkjBHJNMHyTiiwlQMUu4TAWxLJClEuTF/0lDXuS2q51MdoIKcd1RZiDJExs9xw33SceXA+WiETAop/d9HgWguFbXvDFhx/iIl9okHQcGONKecmMLpEuVYIBjYXkK8aoutywe718FNY/0I4hbxCNsHyam5tNR0dHcOFMmbB49J87QohjPXvHmgRjhhGMur4tViiJoPC5WILQL24uCUaUZRns3vC1J5Ef+kTaiqUhEfQ6DQgLdj74dpCU1TZFKhN5SXnalXIn7SySTxywYZB6oh6S38rLH1thjSUa8Q9zUyUYsEWR8kqqapPmK+UJeZC0ydxU6ix5002OE/YR+2gmYoAEYwYRjMA478E6OCZ4fPnDwLNl7PFgKyO0GTLx4z8gGpAzhWBgiyjaFOUqr2+OaSuWRmBHISp76RO4sI1wNQLVy3ptv+FLHVtLE11hW32FYECjpPs+0T3qLvXDzhPEhb2F+GHnSqL0EpYqweg9+0ubdyrbSiV/0fBA45Kob4KwnY8lNPSUPOlSaBIDsxsDJBgziGBAcIngcW0s8KJCcEq4SzBg54CwMG2C7JRwt6nqCSBdI8+wMlMxLNXlR72HAIWdQ/ujN43ebgsioL+wi8oqbb+F7TBJpWwhGNhVk0p8iQONCMYGS0bwW7z+sK0PCJfES+SmSjCw60gw4hKzRPkLPqSOieIybHYLDY4vxzdVDJBgzCCCseaFfwTCIeyMAr284BIMnI8BwRK2Pi5f+wkJxvojVjiV1S5OKviyoTVJFcipxJOtougHdyeIkAPsxEklL18cySMqwcBBWiL0sWUXZ17gOYyY+cpOlWAAF1KWb+urL2/4RV2yCcvn9u3b5u7du8H1/vvvm8rKyrT7O6wM+lMAEgP5gQESjBlEMOxOh9d/ijs1EVb8ckYGBIhLMPQZBi450OctJCIYMCwV4ZTKyZb5RjCw7CL1d3dC4LwMCcMpm2ETlO8QM4mbLsHAFlUpG+eEyD3qK3knc1MlGMF20wcHtGG5I2yZxN3mrA/Y8p3aquuXqI+4iyQ/Jn49XrznmEwVBkgwZhDBkGUOCCBoK6DaBzDwZ1NoNUQwwXUJBnaVSDhOkywsKQvSYglBLx8kIhg4wEnygFofgthnNClgzQXBwCFeIAs4llwOfIIQxdkXoqWBPYGESV1xRoW0Df3hbjOFZqHz6K0gjzACki7BQB1EayF1gOtqWaSuPjdVgoG0OK5dysEBXfpgLvwoDYagOOVTl4MlJXuK7Pj9wA5DLzPBYBS2QGKjodPqexIMCjONB97PbjyQYMwgglG1pNMKBhEQ2rrfCgAPwYBA1XGRXgtcuU9EMDAZ6K2wUgdx3ckiFwRDVPlSp6DNyjAW/jBEdOuKZ+wykXSBO35/os+c9FNBMLBcocuGzYOvjuKn7XF0Ot+9exQ5tF1i9yHxQY60BgxEQcoSN4akiRbktR8ncfTAL6x/kQ8JxuwWKIIVuhxnYIAEYwYRDAwYDDm1xkEERP9jHxhNQNxtqkgLweimhVBZ2LPBHjWNXRSJJgdoTfAFHJAZR/C66UTj4hNWiCvHWycr08030TPU9yhP+kW7aCtIRKL081sGAmNLnU7u0Xc4G8NdPpD8rAYj5Chyiedzg50jqj/xPxVfPPGTvpW6JXLxkztJJy60OsH/UlSZkgf6KYwk4ARP/BhN4sa44/eDY9HDCBjKdglGfX19XN2kjnQppIiBmY0BEowZRjDwwmFZAlsrG9fsC46jTrTm7b6giCtp8VdMN3y2PGPZCAdJ4W+hWB6CzUWUfgKRwhc7lh5gb4IllNnSN247yhcuCfoIpLRqaXfMDhs3rjyjLxEXGMRyUtT+lXzozmwBwvHj+CXCAAnGDCQYiQaUYXzhiQFigBggBvIBAyQYJBiz9ss8H14w1oETPTFADMxVDJBgkGCQYETEwFydLNhuCkpigBiIggESjIjCBT9o4k+a+JJFeckYl3ghBoiBuYgBEgwSDGowImJgLk4UbDMFJDFADETFAAlGROFCDQZfsqgvGeMTM8QAMTAXMUCCQYJBDUZEDMzFiYJtpoAkBoiBqBggwYgoXKjB4EsW9SVjfGKGGCAG5iIGSDBIMKjBiIiBuThRsM0UkMQAMRAVAyQYEYVLrjQYuSo3KqAYn5MQMUAMEAPEADBAgkGCQQ1GRAxw8uTkSQwQA8RAcgyQYEQULrnSJOSqXL5EyV8i9hH7iBggBoiBeAyQYJBgUIMREQOcSOInEvYJ+4QYIAZcDJBgRBQuudIk5KpcFzB85iRCDBADxAAxkAoGSDBIMKjBiIiBVF4sxuEETAwQA3MdAyQYEYVLrjQJuSp3rr8gbD+FBDFADBAD6WGABIMEY1ZpMJY/9KTpPHrLNKzaNavalesJrrK0xLy4f1NwdTbVsW8jzhtRx29jV4t5amytObF+gH09xX0ddWwYP3WyQYIREby50iTkqtxcv0wlVbWmYlGrKattSmmiHb39L7Phzs+m9+wvU4qf6/blsvzGmiqzvH6BWVBZnrSvmhZUm/976Wxw7V/dnTR+Lts1G8oeP7oj6Otvb5xkX0eco2fD+M+WNpBgRARvrgR9rsrNNdD7L7wXEIZ1r/2Y0kRLgpH618U3N04GQuytYzuT9i0JRur9mo13hgRjevs7G2PGPOLHjASDBCOpcMnli0OCEf/SZms8SDCmrm8zHaOHBjvMrUe3BsskmebF9Pk7zrN9bEgwSDBIMCJiYLZMCiQYFDyzBctsR35imQQjonDJ1VJFrsotrphvWnZcDK6y2sVmfku/WfHIDbPq2T+antNvmyXrj5iCwuJQklJSXWeWbjphek79wgw+/VmQrvPoa0G6ksoFcekKS8pseSh35MWvgyWS9W/+J8YfYT5DTr1EUlhcahat3mO6T94xQ1e+MF3Hbpv5y5MbzY2NjZlr167ZC30/VRPYwqoKc2Rdv7l9aJv58MI+8/Fj+81Lj2w2B0d6TU1Fmbfc0uKiwPgPBoBLF86Pi1NfXWnDtX0F7C3Obl5lrx9ungmWSP76zBHrJ+F9zYti8nWXSFDGkXV95pcndwX1vrp71MBvKvqpsKDAPDLcbV4/vC3oH/TRW8fHzPktQ9726zpUl5eaR0d6zasHt5hPHn/E3Dm205zeOGjmh/StpG1vXBj0yZlNq0xRYYEpKyk22/ragjognzePbDer25bY9h4d7Q/ir+9cZv0kL3ExFtK/KxoXxsXbt7rLHF7bF3PtWpk69qTOWF759NKBYGye2LEm4bgUzJtnxgbazfW9681HF/aZ987sMUjTtqg2rn7SDrr5KczzcVxIMEgwEk4kVUu7AwEPw8me02/ZezzLNXzjK1NcUROXT9PIfhtH4mp39PWfTE3bqph0IDE6TqJ7lOu+VEIwsLQydO3P3rwa1+yLS6fz+fzzz829e/fsdfbs2YTxddoo93tXdQYCXownXfe750+ZlS3xxq2usHfLHO1YZvNdtXwy/aGRXuvvluU+X9uzPqbNusxL24cN6uam+f6F01kXTDBE/fq5E3Fl6bIh/N0+wPOaFUu99URa1H+odbE3HdKe3jRoywSJ87UX+XQtrg/y+PKpQ0H8REaZIERS74FljXFl//jiBOGTOHAT5SdtLiosNNf3rLd56/Ryj10pEl/cxbXV5osH9ZZ42j3OHSxxfSZ9Rzc1kkWCQYKR8CXSBEOEff9jH5j2R2+aNTf/aQU4NATuS7d088mJ8PH7ZuXlj03n4VdM295nTf/F92065FnRMDn5FZVVBRoHaB1wwbgzKHf8fow/wpZtPx9XphAMqevwc38Ltq2ueuYPtkzEKSgojEsr9Z8ugoGvXkzoECwfnNtrXti30VzeOWLeObkrRlgsq4slb1rY+3Z0hBEMaCVee3SrvUSg/e/1E9ZPwl2BpMsUIfT+mT3BttWvrh6z9f3VqYdC+1X6N4qLL3Ep789PHzavHNhiLu9YY+4c3WGFfkVpSVyZ0C5IOrjvnnoosGd4+/iY9Uf7F9VUxaVF/TTB+Mszh4M0IBnQnmCsZHmpZ0lDkP7UxpU23zDiIvmAMPn6AH2P+uESUpUKwUDbpK3QSv3XiV1BW2G8K/V8eKgrpsyqslIDQijpPn/ioIEWCpoe7b+9ry0mna/e9EtN2M7FfiLBIMFIOIG4BKNxeK+NDyE9+NQnVnAjrn6JFnSMmOatZwyWPbQ/7mtWrLbpuo6/Hhcu8dM18gTB6Dj0Uky+3SfetGXWdq6LCZPy4E4XwYAQxDKH7wscmgeZ/CFUdf20sI9CMHQeuBfhE3UXCeqlCQi+oP/27FFbX6jd3bLSeUa/SB+AXLh5YOkCxpBwdRjK/+rKRH1AItzlHmgPJN8wQqQJBuLC4LK4aJKUogxohGRZCMtZkieWu3R9cA8tiIS72iE3Lp5T3UWiiRQIjNRH8kSdQRzcpRsQCakPiK7Eh4ulHBAbhAMjut06Hu+zg/PZ3I8kGBEnw1zZQuSqXE0wYA/hvgxVizus0IYAd8MTPY+89E2QdvX1v4amS5dgwGYDNhi6fF3XxevjBZbEnS6CIeWFuSIk/3D5YEw7ck0wfv/4IzH1Qf21QA7TCoS1M8wf9ikiBFMhQZIPbCUkHewtxF+7sKNAHBAQHyHS7YGNik4bdg/tBvKEBsDNE4dmSZ1gCxOWh/inSjCkHcg7VbuJyrISWxdoY6RM7cIOQ+obppHR8XlPsuHDAAkGCYZ3ghGwaILRfuCGN64sY2AZQtJpt2xBo4FAb3v4SmDsCeNQXLKc4SMukj5dggH7C8lDXBAOWTrBiZ/i77p1dXWmo6PDXhUVFaFx3bTpPEMgH1zTE6i18fULA0Jc8hUJ7YDON9cEA8JS1wf3UKWLQOpdOrFsAH8YrEJAp3rhK1wLZ1nGgQsbhlTIC5aZpC7QUED7IJcsAWnbAxhHuu3RBAPGl2647xnLEFKuqzH4x4NlJHcsffnAL1WCIRjBEkdYXq4/7HqknhgX6Ru40j962QWGrm4efCahSAUDJBgkGAknD00wYFPhA9WaF/4RCO6Rl7+NCcfSSN/5X1mhLsLddd10uox0CQbS6XzkXsoG2RG/XLlYAsBuCJnsw1zYOOg65ppgYFeGrg/uw+w+9Bd2WPtcf00wYG/hhkOoQgCGHVkOGwQ3TaJnvdwj7dIEQ+wsJCzMxe4eIUSwo5B4IDBSPkiS+CdyUyEYWLqQfBE/UX46DOMn6VJxYRuk0/Oe5CJVDJBgkGAknDw0wWhae8AbF4aUENzQSGjgrbz8O0susGMEW1Vb9z5jt5uuffX7IHztK9/FpNN5pEswwo4KzyeCcffsXjvRw4AQ2gsIVNnK+D/Xjgfh+PrVfZJrghHF7gPbS288vCHlC7shdFtxv6ZtifnTk4/avtJCEX0IGxCd5ncXJ5YqEA8CPdmFnSo6Pe41wQjbLuymwbN8+cPYUuqF9kudsezjS+f6pUIw9BJSFBJwcetqWx9s/U3WP3onkltPPpNsJMIACQYJRsIJTxOMlp2PeeNCAwHBDU2GgE1vN8WZGb5dG7ILZS4SDE0SsHaPsx6k78SF+hqCySUYWCYQgQUBLvHFxbkGEp5IOKRr5BmFYEidsuFCoO5Z1Rns5JD2wXW1AlD1S7jPgDaVumiCAZuFVNIgzubu5bZs2YEh/RxlGSMVgoHyRGMSZqzqq7fGB+59cehH4pANDJBgkGAknGA0wcA5GC7oCgqLDAwqQTAGnvjIhuOAK9EW1HbF79goKCo2G8bvJ9Vg9J3/dRDH1Y649ZBnsevIRIOBcy/u3r1rr+HhYdsuKSdTFwcoiRAcWbE0Ln+ov0V4uAQDWwwl7TmPyh0CV8JTIRjYFpusPZoQ5Ypg6Dqiz6SNrqEiDDslzN1BovNIdJ8uwQBRlG2eOLRK71jBrpNEZeqwVAmG2HZgW6teWtJ5ufcwBpX+ubRjTcp1cvPhM0lIMgyQYJBgJJxgNMEAkXBP7cRpmkIksPwhgKsf2G79fedVQBsi6RJpMLDVVOK5u0KkLO1mg2BMxy6Srb2tdpL37XQAcRAh4BIMtFfIh17rl34QzQfSJyIY2PqJODB4lLRhbr4RDPw+XvrA3dXS0VRn+w5LKGFtgr8sY7hx0iUYyAeGkuhX1A/GujKOvvM63HLlOVWCgWU1yd/YBflmAAAgAElEQVSnzUJ+aKMuG9t65eAwuLAdkXJdN6x/3Hh8JtnwYYAEgwQjdHIBYDTBgKAffPL3dvsntn3CtiIgAOP3DY4VF5Dh9+pCDGBrUb1s8uttyYajNgxxEhGMJRuP27h95941WHqZNy9+OUHKnSkEA+v+Ihhga6ENCd0TN30EQ587AQNLtB9aD+zakHzhJiIYOOZb4uI8Dn2suPSnuLkgGDhgDF/m+MquVb+Ux1KJXgZ59qF4DZkIaLQPx4PjyHBpC5ZNcH4G7Dp+e/5h6y/hcDMhGFprIf3rall0Wb57qT8MWn3h4ocxkyPfURZO35RzQaDRgP0K8OUetKV3vOAUUr3FFVoYnK+BZRcQECmLLklEVAyQYJBgJJxAXIIhpMESiwdHhrfueTouH5z4KfHhBmkeLItgeUTySEQwoLWQeDov3MO41AX8TCEYqLcYBIoQwmQuX+Vw5SvTRzBcEqKFjKz5I99EBAPHXEvZrovDmXTf5oJgaFU+6oelBznhUuqLPnIPl0K9YZgpywc6rvSp+OH/G7qdcp8JwUAebj139K/wliPluXWV+vlc92RXbKN147nluwQD5YJA6HTAkMYOwuAndaRLghEVAyQYJBgJJxBNMKBNkMOxtLDHaZ0+4OHYb7Gh0PFBAmCXIbtMEm1TRb44RwPHjLtEw0cw5EyO3jPveOsk9cCR5b46w+/TTz+1/yHBP0lOnz4dGjcsj1T8YTyIJQ49yeMeX62wMZBdJu42VeSNr8wX92+KS4t1f5zBIHn6/mWi6wYbBRAdTVCQ1iUY2rDUJ6zWtk/aRCQrU5ef6B6aCmxzFdIlbRIX2odEh1ZBvY8dHGHpP7t0IPjRl68O+uhvLMf44iTyw2mdUk/0bbKlBlewS1qf62szfp4m/0Nx08CI2JcG9Qc5cUmXpMdBbzhwK1E7GUbSkQgDJBgkGAknEE0wGgYn9vZD4OPIcPyZFEaeiQCGsNKaBlPXt9ksGtod3CeLP9fC6+dXBkdvw6If91HaDyG8pac1SJ/ujoko5eUiLlT+0LagnSA3UN+j3anWBUsFOKobuzrQxzgILB3SkGp5uYwHDGCJBj/SA0lNtZ8QD8QUu3Rwcmeq6XLZVpad/+SGBIMEI+FE7SMYfLHz/8XmGHGMiAFiINcYIMEgwSDBiIiBXL+0LJ+CgxggBmYCBkgwIgqXXP10LFflUoPBiWwmTGSsI3FKDOQfBkgwSDASazDU31JxtgVf4vx7iTkmHBNigBjIRwyQYJBgkDRExEA+vsisEwUMMUAM5BsGSDAiCpdcLVXkqtx8Ayzrw0mUGCAGiIGZgQESDBIMajAiYoCT28yY3DhOHCdiILcYIMGIKFxypUnIVbl8QXP7grL/2f/EADEwUzFAgkGCQQ1GRAzM1Jed9aagIgaIgenEAAlGROGSK01CrsqdTjCyLE5+xAAxQAzMHgyQYJBgUIMREQOcAGfPBMix5FgSA1OHARKMiMIlV5qEXJXLl2/qXj72LfuWGCAGZjMGSDBIMKjBiIiB2TwhsG0UeMQAMZAtDJBgRBQuudIk5KrcbAGN+XDSIgaIAWJgbmGABIMEgxqMiBjgJDm3JkmON8ebGEgPAyQYEYVLrjQJuSqXL1Z6Lxb7jf1GDBADcx0DJBgkGFOmwSgurzadR28F1/zlAxmVU9e32bQ9fMU0bz2TUT5z/YVn+yn0iAFiYLowQIJBgjFlAruiocVsuPNzcGVKDHrPvBPkM3r7X1NW38xfugJTsag1uApLyvK4nhMTbFltU1DXkqravK9r+mMzs8Yk/XZSaLLv8g8DJBgkGFMmXOYawYDAFkK1ePTQlPVrtibSda/9GNS379y7eV/XdNs808Yk3XYyXf4JV47JPEOCQYIxZcIlmwSjcXiv6T7xpmnbd3XK6pvphDDThBkJBoVSpphnemIoEQZIMEgwpkxgZ5NgJAJxvoSRYOTfZDvTxiRfsMx65B+WZ+KYkGCQYKRMMGo715muY7fN4JO/N0NXvzT9j31g2g/cMGEGnMkIxvyWAdOy42JwLezZEFePprUHzJKNx2OuRav3xMXTLx7iI8+aFasNhEvLzseC+g48/pvAv3R+fcL0Oq9U7mu7Rm0bVjxywy6RoG+kbeImKntB+7Bp3fuMGbj0oRl8+jPTfvCmWdgd3ydunaKMCexDpC5w17/5n6C+a27+M8YfYWFjivKjlOnW99y5c+batWvBdfXqVVNaWprV8Qjql4UxqVrcEfTJsh0XTEFhkYFNTcPKnabn1Ftm6MoXpuf022ZBx0hM3RvX7A+MkF1/6YOlm04E4VVLu2PSSTjcdHGg8+A9yUG+YIAEgwQjdLKbBGmBGXzqEys8xc5Auw2DY3H5JCIYEMwbxu8HeY6+/pOpbGyLSy/hupxkRp4iNFFf5KvT4h5+1c29cWVNtjXa5NR/8f24Mtwy5RltdsspLC41YsAq8bTbc/otU1BUHJdu3rzoY7Jkw9GU69p+8IWslOm296effjL37t2z16JFizzlRBsDt4xMxwT5Ldt+3vZVeX2zF0sYp+rmHlt/YBN+vWd/af103WRcsRtK++M+fRxk1lduPfjM/swmBkgwSDDiJjsXYK27n7KTLdbtYRTYuufpwCZi5OVvg7BFQ7vj8gkjGPX9W21+mJTL65rj0qIO3SfvmL7zvw4usRdIlWDIZL76+l8MhOXKyx/bMkFCsrXLA1oW1BOXFmwoV/zFhaBy+xaaIKnr2le/N51HXjUdh14y0q8I6zr+ely6dMYEWgmpC1whcOtu/RDjj7C6vi1ZKdNt73QQjEzHBHXWBAMaHowDyOmqZ/8YYEnwWL1skqxmQjDSxYHbv3wmQcgnDJBgkGDECRIXoBCWgRAcv29KKhfExa/tXGvK65bG+fsIRsOqXVagYpIuW9AYl84tH8/ylR+FYPSc+kVM3i1jj9uysXTiKycTv6jr/bov+i+8ZwoKJzUVUMtjqUTIR2XTipj6pjsmun0iJFPdRZKNMqeDYOg2Rh0TSasJBsag+8S4o0kqMNAI6WWvdAlGJjiQ+tIlschHDJBgkGDECC4fSPGFi0kWAskXHubnEoymkf1WYK595TtTUl2Xcn7pEIziipqY/AsKCs36N/4d1AEagrB6p+sfVZiNvPh1UBcIJqjI3XJrWgdtf7m7Z9IdE11GVIKRjTJnIsGABkP3W9h9ugQjExyE1YX+JBz5gAESDBKMpJMn1MLyJY0vuURGahrUmmAMP/c3mwcmYlf463S++6gEA+X58oGmIGjL+H0b3rTuoIEQiXL5jCCjEgxZogDpwRZc9K29Hiy7SL/DsFa3J90x0XlEJRjZKLO5udl0dHQEF46/1/WZivuoYyJ10BoMLLmIfyI3XYKRCQ4S1YdhJBm5xgAJBglG0skTVvEi6MSFHQPWjesHtoem1wRD0okbZmkf9kJEJRjYNeLLq+Pwy7YtRaUVQRzs3pB6per6bBSiCDMdN5Uy3a/odMdE90lUgpGNMnX503Gv+znK4WeaYGg7i0R1Todg6Pqlg4NE9WEYCUauMUCCQYLhFcQuMKGu14ZoejKEireiYXlcPi7BGL7xlTUshMFcFC1GVILRe/aduPqgTdhWK3UvX7gkiIOtgTCsjHL5DDa1sEgmzCC0pB7o15axSwkvHDSWjTHReUQlGEibDg50mdN9H2VMdN00wfDZHem4cp8OwcgGDqR8uiQU+YYBEgwSjDjBlQik2H2BMytgGCiqXQhKGCS66TTBwLZRGC7inyQiWOHnpgl7jkowwvLuPv6GLV8bVYaVG8U/ijArKqu09cDySJRy3LhRxkSnTYdgSPp0y5T00+VGGRNdJ00wisqqUhqfRP2px1tvU9X+meJA15/3JBv5gAESDBKMlCZPH1ihgZBzJ2BH4MbRBEP/7Ezvjli27VxcOjcfPEclGNjy6ctH7Ah89fXFj+KHHTFCnrDDIFlaMTgduvKnpHGT5SXhycZE4sEVgYjttdo/6n2UMm/fvm3u3r0bXO+//76prKzMqOxkdY06JpJfOgQDhssB2fYQZ5yXIdjQBAPlTQUOpB10STRyiQESDBKMjCb4NS/8I5g4fQI7jGBA5awPwUrFaDQqwcBk7q6d46+hMsnjNMZsv3jQ0Ej+OIkzWf4rL//OxtcHNrnpompaEo2JzlviYelK+6dzL3n5cKDzm+5dJFHHROqaDsGQJUQQN8lH3M6jt+xYuwRjqnAgZdMlycgVBkgwSDDiJkMXjCMvfWOwtIDjkyUMBpKwMxCBislVwsQNIxgIX9iz0abF9sdkB1+lQzCQb1nt4qBeUHPrnSwoX+qZTVfW4aHZqevbbMSQ1FcGDhiT/kM6HECm4+Fobwgm5OUSkHTHROfff/GuLR8apmS/bc9GmdNNMNDeKGMi/ZMOwcAx+jKebXuffTCWBQa7lMQfrkswMsGB1JcuSUQ+YoAEgwQjRqj5QCoq3GCSHL9v5DwEPWni3x9u2kQEA3H1V517vLKom3UZYfcoR8qWJRsdVwSM+E2F9kLKx78rpBzXxT88JJ64WpAF8dG/+I36g2PUJQ+XYKQ7JlIuXK22l3LEhTGsjov7bJSZC4IRdUzQVj0uqdpgwPBX+i9wMYYPxhFLdhLmEgy3PEmbCg7cMeIziUY+YYAEgwQjTpC4AIX2IEa43PnZTpb4qq3r3eTNQ3+ZNW85FRcHqn+kl4lXb3kV+wAJS+TiS1/qLAQDBnP44ZibDsapUZccJO/U3IkTHrGzRuoidfARDOSJn77pfpD4cEGOcDaGu+Mm3TFx24Cy0U9uXX0EIxtlugSjvj67P59z2zfxHH1MYBsk4wBDTH++8cIsOEzOIYcYW20LMqndiE2fDg5SrRfjxfY1+2N6+oMEgwQj5ckTW1GxtICDh+D6tmrm+sUVQSn/78DXJ4gLdr4kWq7Idb1RPgQZNEFB/3ZvCP1Hi65rLsYkF2XqNuf7PcYRx+fj/zwlVQtTfr+kXengQNLSnR7ByX5OrZ9JMEgwIk+A+fxyuQQjn+vKuqU2SbGf2E/EwMzEAAkGCQYJRkQMcLKbmZMdx43jRgxMLwZIMCIKF/w/YTr+oeC+CLkq161Hvj9TgzG9E0i+44H1Ix6IgdxhgASDBGN2aTAe/C2169hrs6pdnCRzN0my79n3xEB6GCDBIMGgII6IAU426U027Df2GzEwtzBAghFRuORqqSJX5XJCmFsTAseb400MEAPZwgAJBgkGNRgRMZCtl4/5cCInBoiB2YwBEoyIwiVXmoRclTubwc+2cXInBogBYmDqMECCQYJBDUZEDHBCmroJiX3LviUGZg8GSDAiChdqEmYP+DmRcSyJAWKAGJg6DJBgkGBQgxERA5yQpm5CYt+yb4mB2YMBEoyIwoUajNkDfk5kHEtigBggBqYOAyQYJBjUYETEACekqZuQ2LfsW2Jg9mCABCOicKEGY/aAnxMZx5IYIAaIganDAAkGCQY1GBExwAlp6iYk9i37lhiYPRggwYgoXKjBmD3g50TGsSQGiAFiYOowQIIxgwhGccV803n0VnBVLe6g5iHi2M2EiaSub7Npe/iKad56huM7C8d3JmCQdZw6gTvX+pYEI+IklksNRkXDcrPhzs/B1Ti8d9oFUFFphalY1GpQj7n2okxXe3vPvBOM7+jtf7GPI76b0zVGLIcCmBhIDQMkGBEnsblMMJZsOGoJTun8egrAiNhJZVIiwUht4kqlLxmHfUkM5BYDJBgRhQQJxoQGhQRjal5caKa6T7xp2vZdJYGL+G5SmEwNJtmv7Nd0MUCCEXESI8EgwUj3ZWM6TtTEADEwlzBAgjGDCUZ1c69p23fNrHr2j6b37Dtm6abjprC4NMmXb4FZNLTbtD960ww+/ZkZuPShad3ztKlsWuFNt3j0kGnZcTG4Bi791i6RoFzxh7ts2zlv+kxepoKCQoPye069FbQR7ew7/yvTMva4Ka9rTlgeDGKxpNN9/A0zdOUL03v2l2bZ9vOmuKImYToYzwbt2XHBFBQWmcKSMvP/27vy7yqOK/2fWCAhJIEQQuy7JBASaEeIfRFmMYtZzL4GYwxYGLMYGy8i9iSOHZwx3mLPJI59PJ6Ml+Mcz+QkkH+n5nwtbnFfvep+r59aemrp+6FPdddya+nv1f361q16dau2BW2AnKYT75ppDd1WxrwNx4L8tSvW2zi3z2VVNXasfM65s1fvM3PXHcm4ZnbsDJXnypc2Y3ml/aU/m5Zz94N3Gm1liocDXWdTU5Pp7++31+bNm/Nuq5bDeypbYmBsY4AEI6UEQ9bqxelTwq6bfzVhimXy9Lmm8/q3liRIGQnnbzyepSjgbCjpucIkJ4vymtmm5+4vkXVD+fvqrGnsMWve/Lu3LOKn1Xd6y0EWSIj0c/KM+aFypsxvCmR0vvJfQf4op8yFfReszOrFrVl1rx14ZNOl7ih50ueSCaWmfv/NrLIiAyF2pUh+CQvBgZRFePHiRfPw4UN7PXjwIKsOnZ/3Y1uJ8P3y/YZhgAQjpQRDlAisClAyougQj3v3hZdOnmJ63/qHVUYd1/5i6vddD77wdXxda19GWfgCLD92L7g6rn1tyzefed/GI33ZkTczyrn1x33Gl7j0sevGd4H8xbsuB5YaIQ/Y1eLKhXVByiFsOf9h4M+A9tr4gUemfNqsrLKQpQkGyBrKoD5YT1Zd/MSSnikLVgTlYbkRuWHEReSAMLntxTPGD+3DJaQqH4KBvkndvW//07Sc/WCwr6ffs3JgHdF1FooDLYMEgwpF44H3xEMYBkgwUkwwMpVHSbDcIQpHm/Hx8rFUIGkw62tAwIQvlgoouJKJpRnpknekdpHAMiFtBbmQ+iXE0gWcIRFK3GBYYrpv/zBYduCRmbpwZUY6rAcid+Wv/pCRJnI0wUDe5UcHnPEoCZZexEpUVjnNymw6/ussmVjKkTrr99/ISpd6JRTLVC6CoYmUz2qFd1i/7xXjLt0kgQMSDCoUwStDYiEKAyQYKSUYq+/8lKWsYNIXZYavYXnxE8urbDy+wiVeh/DDkLJhX+IjRTDKptTatjSffs/bXt12uYevhPQBREHidQg/iiDPwCPz1FMlWXk0wYDi1mXD7mHdgExYglyZODRL2oQzRMJkSHy+BMP2496/Qv1nRKaESeGABINKRTDFkFiIwgAJRkoJRsOB215l1fP63wKF1vnyNza9ekmbVXJQmtgGiS/z4Hq8/KHN7Qu2nrVlNXjiEIxlz901qCvOpZWz9UsYeBQ4dYYtaej2Ldl1xfYTFgpfP7UPis/hUhOMTAtR+ESCfEIipjetyxg7EEGkdd/6PiNet1vf50swxOKEpS5dPuo+KRxUVlaahoYGe9XU1OTdhqj2MS0cYxwbjk0aMUCCkVKCEfaFLn4Ser1fEwNRhFFh48E7XoWh5cgSQRjo9Rd2VF06TRMM+FvoNNxDqYIIVc1b7m0ffBDcMlHPtc0bs+RogiF+FmF9lHjs3BFCpC1HIDBSPxw9JX9UmA/BwPKHyEX+KHk6Tb8/KR8VhuFAy+Q9FR8xQAyEYYAEI6UEA8rC91JFscPpT9IXbX/eKiRs+YSyi7qql3bYsiIDoVZQuQgGtpfCypLvBUdVXRfuaxpXG1hifEpw1cWPDXZR6DJtl7+0eaP6J2nYqaLL414TDPhXuOlhz2IBwrhLu9B3aTuWfcLK6vh8CIZeQopDApLCgW4v76lciAFiIAwDJBgpJRiLd1zyKiw4RUKpdb/6o03HuRei6HAfBoZc8XEIRi5ZcdKhUGd17Ql2ckg/EOI8DC0HSyKSHraFVef33WuCAZ8FXx5f3IyWTbZu2YkjO0LiLGPkQzBQv1hMwpxVfW1MCgc+2YyjkiEGiAEXAyQYKSUYfufHErsVFV/z8rJxiJYoXjhzSnzccG7vISunvGZOwXLi1qvz1yzrsW1wHVY1OXB3kGgZUfdaRhyCgUPBZLsvDi/TO1bCrE2+duRLMMS3Y3ApLNtZ1Sc7KRysWbPG3L9/315Hjx4tChZ8fWQclRwxMHowQIKRUoIBU7x7aid8CoRILN173U762M4pZ0cgdMvpH6SY93Wc3GPLo8ifvnytlS/pIxFOLK+0X+/tV/8zow1Vcxtt+7CEEtWesH4WSjBQF86zCMZn4FFw4qeMle+8jrC25UswsCVW5GM5yicPfdR1J4UD7iIZPRO4770zju9ntGCABCOlBAPKBUd9y1IAtkDKzgKYz3G2hQaZ3umAg7j00eD4+sa5CjC3g4Docvp+cu08q9SwOwSnWYadmaHLxb3H38HjyxzWlrKq6bY9WCrBzhdRrEv3XLNpUocoaOTB8eA4MlzSMFY4PwN+Ha2XPrPxko5wKARDWy2kja6VRdflu5f25zoHA+8XJFPqmb/xhDoXpCTwX1n92s/G3QmTBA5IMKjAfNhlHHHhYoAEI8UEQ5SLJRb3Bv+IDP8T4r5oPINASBmEUFDiJyDxiPOVlbjWFz7NkCHlEEqeoYbalB+0861/ZLUTRMjnaArHTFk+kLYhLy55Rghy5mvnUAgG5LnjWde23VuP1O22VbfRva+oW5ghS5MFyevW7xIM1DtUHJBgUJEIfhkSC1EYIMFIEcHQB2nhz7FgRRDFIiEUZNQLh8Jxla2UxSmYuXw0sESBHR/4OhZHQykfVW+cNFgqgt0wnv/oQF2wPkQdWoWlgWAHR0j59v6vgj9887VJH/2NvvryRMXhtE4ZD5C1sKUYkeESAinrC319xlZYfUy8LocDwHxlUPdQcHDhwgX7PyT4T5KPPvoo9jhJ/xlSQREDYxcDJBgpIhi+H+Kk6rrA7A/zfC5lpstDieNQKOzOwMmdeNbpo+EePgNYhpmxckugELGME6+dJQakDLs6sINi6sIWUwhpGA1jkasNWP4BBmZ37zFwhM13nNKAg1x9Z/rYVVB8t+l+tyQYKScY/AGm+wfI98f3RwwQA2MVAyQYJBijznIxVn9s7BcVCTFADIwnDJBgkGCQYMTEwHiaINhXKkRigBgoFAMkGDGVS319vcFV6ICzHH+sxAAxQAwQA+MBAyQYJBgkSzExMB4mBvaRCpAYIAaGigESjJjKhRYM/uiG+qNjeWKIGCAGxgMGSDBIMGjBiImB8TAxsI9UgMQAMTBUDJBgxFQutGDwRzfUHx3LE0PEADEwHjBAgkGCQQtGTAyMh4mBfaQCJAaIgaFigAQjpnIplgWjWPUOFWAsz0mKGCAGiIHxiQESDBIMWjBiYoCT5ficLPne+d6JgXgYIMGIqVyKZUkoVr38QcX7QXG8OF7EADFADAxigASDBIMWjJgY4ORBBUIMEAPEQG4MkGDEVC7FsiQUq17+iHL/iDhGHCNigBggBrIxQIJBgkELRkwMcCLJnkg4JhwTYoAYcDFAghFTuRTLklCsel3A8JmTCDFADBADxEA+GCDBIMEYUxaMRU+/YBoPv27q2raP+n7tbGs0t/asN6c2tI36tuYzmTBPptKZVDrRvLCt21zqW20aZtfyHceca4mnTDylcTxIMGKCvliWhGLVW2xQl1XVmIqZi015zey8Jug1b/yfWXvvX2bFqd/mlb+Y/fvg5E7zv7dPmf/uP1KUts6qrjKLZkwz0yonF6X+Yo79SNRdUzk5eL94x4d6mjnGMefakXhHrGN4SQwJRkzQF0vRF6veYv8AW85+EBCGnru/5DVBk2DkP2H8cP1YoADfeW5bXmNbbCykrX4SjPyxmLZ3y/bm925JMEgwRrVyIcHI74dcyIRHgjF8Y4v3UV5Wal5/dlNwNc+fOap/Z4Xgh2WGFz9jYXxJMEgwRvXER4IxfJMYCcbwje1YUA7sA/ExVAyQYJBgRBKM0oqpZuHWc8FVXjPHTF3YYpbuvW7arvyHaTrxrpnbe8iUTCgNlVE2pdbMW3/UNB3/tWl98Y9BucbDd4NyZZXTsspNKCu39aHe7lvfB0skvW//MyMeaT5HTr1EMqF0kpnZsdMsP3bPtF/9k1n23Btm6qKVWXW6P6K+vj7T399vLyxPuXmSeNY+GHAI3NfVZLBc8fG5PebqjjUmn6/eBbXV5sT61qDcZ7/aa+7s22j2dCw3E0pKstoMfws4lMr1t5sngyWSry8fsnGSlk/dccegqnySObepw7xzpM98fmGf+fczu81bB7cE/Z4yeVJWe7X89sVzzMWtXQZj9uDsM+bazl7T0zA/sgzKH+heEfStY8ncIC/G4MzG9kDG70/uNBe2dJrK8rIgbdmcGXYcJE63Qe43rVgc5Hu2e0VW/UtnTTcHVzdnXfOmT83KK/LcEP26uK3bvHf8aYN3eu/w1sCHAxYRN688x8GBlGFIAjHcGCDBIMEInbQAvqp5ywMFD8fJphPv2Hs8y9V5/VtTWlGdJWd29x6bR/LqcM2bfzfVSzJ3UIDE6DxR96jX/YEIwYDlo73/K6+sWV3PZJXTcr744gvz8OFDe506dSoyvy4b514IxvcvHzV/vLDPOgTCKVCuI73hhOj4ulU2n+SX8E+XDpiZ1VUZ7YaylfRcYf/O3oyycfrly7tu2ULzy61BQuOr+9urh731gXgNHN4a2m4QlNKJE7xl0Y6fb5wIyt59dpN5fmuXV85HZwfx0Nu4wKaHOWWCuAkxg/J3+3ohpI4webr89KqKgHT5xgdxqBckTZfBfVwcuOX5TKIxXBggwSDByJqwNNg0wRBl33L+Q1P/7E3TdfOvVoHDQqDL4X7ehmOD6QOPzKqLn5jGg3fMkl1XTMu539tykFlRt9CWnVheFVgcYHXABefOoN6BRxnxSFuw5YwtJ3ULwZC2dr78TbBtte3yl7ZO5CkpCVdKI00wRKH8z7Wj5sae9YFC1coYik/6JyG2P0o5KJ43D242V57uMZ+c32Pjv7ly2JQofMMqAUUrl9SBeiVOQhACqWuoIUiCKGW0GYoZBAZWGpAstOPbl57z1gdLh/QTu20wPrY6N5MAAAv7SURBVNd3rw3ySzysNmFtFIIBAiP5YbF5/8QO8+XF/UEcLEYoj7GS/F88v98rc8PyRVYOLE5uvRi3d4/0BRcsJFJnLoIBkiRLViiDd/LGgc12jGT84Diq6ywEB7o870kuhhMDJBhqAs5noIu1m6NY9boEY1bnLjvBQUm3XvrMKm7k1WM4raHbzN900mDZQ8fjvnpphy237MibWemSv1AfDBCMhgO3M+QuP/q2rbOmsScjTepDWAyCAQVYOWnQVI82gAwIAYAi1O2DZULSoJjx5avTz2/utIrt8JqWjDSdTxTacO8i0Ur5lWfWZbUHyyNYdtBtw/3WlqW2H/92dLuZOOEJKZw4oSRY5hAFvmRmTVZ5yBDCgHw/vXLcrFqYud0ZSxdYUpK6QVZEpqvMkee3x7YH6Rj/yRFLFsgbZxcJzsqQerEkovsKWXjHWDLRFoykcCB9Z0iykTQGSDBIMOzk6gOXJhjwh3DzVM1psEobCtxNj3ruvv1DULbj2teh5QolGPDZgA+Grl+3dU7vwYw0na8YBGP7qmw/DygUUTp6uePVfRtsPNb8ddtxry0GYV/iyDdSBOOZjmW2vXs7nyhzt93uMyww6P+P148FfXLTVy6YZeVCQbvpeNYEA0THl0fHrZhXZ2WeXJ+5fIdxFWIHy4su57uPQzBELvrqkgufbMQlhYMw+Ywn4RgqBkgwSDAiJ0pNMOr3XffmlWUMLEP4AFk+bZaBQl+y+2rg7AnnUFyynOEjLiKnUIIB/wuRISEIhyyd4MRPiXfD2tpa09DQYK+KikwLgZu/0GfxwYASxRe5K2dXW6NVdt1L59l0vWwg2yAllCUOIQ8wrbty5Vny5LJgLK6rMVhWiHNp3xGttFEnTjCNcqKU9onSBUmQ/kko/RQC9oczu739FIKBJQeRmytEXsj986UDGWWebm2w78NncXHl5ksw5tRMsXJf3O4nSq5sPCeFA59sxpFcJIEBEgwSjIxJ1AWVJhjwqXDT8dx147tAcXe/+mNGOpZGms/8zip1Ue5u6JbTdRRKMFBOy5F7qRtkR+KKFQrBgBL0tQE7H0SB7lc7FoQYSFqu0EdeUJ/IyUUwtKUgV12SfsNZCoHfhaRJCJ+K23s3ZC3xoG04ZVTy5RP+5bLfIiUEQ/wsfOPsxsGXRepEOyT9w9O7gniQtrAxlbwI8yUY8NuQ+kAqtYyoe3l/UjZXmE+bo+pjGklHXAyQYJBgRE5ommDMXr3PmxeOlFDcsEhoAK66+LElF9gxgq2qi3ddtttNV7/2c5C++s5PGeW0jEIJRthR4aORYEBR6D7LvVbs2lwvX/b40saWy6jr9Mb2DEdPkY1QFFQugjFjamXgWAnnynyvNQ2ZjqnYfQGShB0zriJEf7AtU7etae6TpQp8qUf1EWmwLujyci8E4+1DW7zpkk+H8MuQNmJXCNIqJpXZOOxc0fnD7vMlGPABkfriONcmhYOw9jOehGKoGCDBIMGInCw1wVi47bw3LywQUNywZAgg9XZTnJnh27Uhu1DGO8GAopBx06H+su1b+cRHA46dUEhhWzu1jKj7fAlGlIxC0uTMBvGxEOW6fO4MOw5weJV4LIsUUg/KCMHAkkocGbCI6DHe39Vk24MzOfKRlS/BgOOp9DXKKdetMykcuHL5TGKRFAZIMEgwIidLTTBwDoYLvJIJEw0cKkEwVj7/wKbjgCuxFtQsy96xUTKx1KwdeJTTgtF85v0gj2sdcdshz+LXMRQLBs69uH//vr06Ozttv6SeJEJZIoFymTGlMqsOWC1E8eCLXuqMa6qXcm4oBOM3x4r3z7Mv7Vhj+3hiXavtI9oq5OBTz3kTbl/CnkVGXIKBA8dk7HE4lyzxhFmbfPXnSzCwM0TqymVN0vUkhQMtk/ckF0ligASDBCNjUnfBpQkGiIR7aidO0xQigeUPKT9j5RYb7zuvAtYQKRdlwcBWU8nn7gqRunSYBMEoxi4Sd4kAfZKvaFg49JZIfbAS7nX/3fuoHQlfvTj4lY5DudxyI/WsD7eS5Qip+/6pQZ8HKF+csinxbhjVx0IJhiYHr+1/snUVS0Ru/WHPWkauczC+e2yVQl/DTv0EEdHnmiSFg7D2M55kY6gYIMEgwYicMDXBgKJvfeFTu/0T2z7hWxEQgIFHBseKCyDx9+pCDOBrMWXBk2OV5649bNOQJ4pgzF13xOZtPv2ewdLLU09l77iQetNKMEAiZP0d/grXdvXar1o4Qkr/EMJZDw6SUEYoBx8E7cCHv19HnPho6LL6Xs50gJyjvSuH7W/bD/W0GJAYbFHFVk9pAywDiEf9uOQ4b0nXvhDYvuluM0X5W3vWB4d4hRGQQgkG2iBWC2kfwrDzNqTNOoxDMOCzIvXgvI4utWsIh3DhWHI4l0Km1JEUDkQeQxKKpDFAgkGCYScsH7hcgiGkwRKLx0eGL975YpYcnPgp+REGZR4vi2B5RGREEQxYLSSfloV7OJe6bU4rwRDlAoUI0iDPUDa+5ZO2RbMzTsdEfpjv5cRHKQ+i4Y6RPEMpSz43xNKF5BtqiKUPLR9kAf3ScWHndbhlMTZwFNVjBDnDQTBwUqduY9hpozI++rwPXc53j4PDpJyE8DXRedFHWcaSeE0wUC4JHEj9DEkwksYACQYJRtZEp0GmCQasCXI4llb2OK1Tl5F7HPstPhQ6P0gA/DJkl0nUNlXIwjkaOGbcJRo+giFncqw4+Rtvm6QdOLJc2umGn3/+uf0fEvwnyYkT/m2kbrm4z797fJAWzOP4yneVJs6d0AdsufKj/rsCsnAcdpjiFVk4MRQHernEJEmCga9xWe4RRSkh2onTM/UpptI2CdFGfdS3lEUIsgLFPLUi+7RYlBcLRiGOoliW0u8Ef4wmbfKF2hFUt9F3H3ZQ1+bmJUGf3DJoB0741BYgaUMSOBBZDEkyksQACQYJRuSkqQlGXWtfkBcKH0eG459J4eSZC5CTqutMbfMGM7N9h8F9rvzjNR0mb+xQwBHZPqtF2LjAB6Fxdm1wgBWWEepnTc/7NMgwmcMRDxKBrbfYEYNtpSAOUcTCbQPy4ot9d/uy4J9Uw3wV3HJpfMYyF/5VFYeSYcywTTZXP9KCg1z9YPrYITkkGCQYkROXj2BwAhg7EwDfJd8lMUAMDBcGSDBIMEgwYmJguH6MlMuJnhggBsYSBkgwYiqXYv2rabHqpQWDE95YmvDYF+KZGBg5DJBgkGBEWzDUv6XibAv+OEfux8mx5lgTA8RAmjFAgkGCQdIQEwNp/sGz7VRYxAAxMFIYIMGIqVyKtVRRrHpHCoish5MeMUAMEANjCwMkGCQYtGDExAAnwbE1CfJ98n0SA8ODARKMmMqlWJaEYtXLH97w/PA4rhxXYoAYGOsYIMEgwaAFIyYGxvqkwP5R8REDxEASGEg9wUhiECiDPyZigBggBogBYiBZDJBg8OuVFgxigBggBogBYiBxDJBgEFSJg4pfAcl+BXA8OZ7EADGQRgyQYJBgkGAQA8QAMUAMEAOJY4AEg6BKHFRpZNpsM78QiQFigBhIFgMkGCQYJBjEADFADBADxEDiGCDBIKgSBxW/ApL9CuB4cjyJAWIgjRggwSDBIMEgBogBYoAYIAYSxwAJBkGVOKjSyLTZZn4hEgPEADGQLAZIMEgwSDCIAWKAGCAGiIHEMUCCQVAlDip+BST7FcDx5HgSA8RAGjFAgkGCQYJBDBADxAAxQAwkjgESDIIqcVClkWmzzfxCJAaIAWIgWQyQYJBgkGAQA8QAMUAMEAOJY4AEg6BKHFT8Ckj2K4DjyfEkBoiBNGKABIMEgwSDGCAGiAFigBhIHAMkGARV4qBKI9Nmm/mFSAwQA8RAshggwSDBIMEgBogBYoAYIAYSxwAJBkGVOKj4FZDsVwDHk+NJDBADacQACQYJBgkGMUAMEAPEADGQOAZIMAiqxEGVRqbNNvMLkRggBoiBZDFAgkGCQYJBDBADxAAxQAwkjgESDIIqcVDxKyDZrwCOJ8eTGCAG0ogBEgwSDBIMYoAYIAaIAWIgcQyQYBBUiYMqjUybbeYXIjFADBADyWKABIMEgwSDGCAGiAFigBhIHAP/D4a5K+EgnpauAAAAAElFTkSuQmCC;" vertex="1" parent="1">
          <mxGeometry x="560" y="67.06" width="231.54" height="165.88" as="geometry" />
        </mxCell>
        <mxCell id="5vuApOfT_cjBhhZYTmAU-19" style="edgeStyle=orthogonalEdgeStyle;rounded=0;orthogonalLoop=1;jettySize=auto;html=1;exitX=0.5;exitY=1;exitDx=0;exitDy=0;entryX=0.5;entryY=0;entryDx=0;entryDy=0;fontSize=9;" edge="1" parent="1" source="5vuApOfT_cjBhhZYTmAU-14" target="5vuApOfT_cjBhhZYTmAU-6">
          <mxGeometry relative="1" as="geometry">
            <Array as="points">
              <mxPoint x="360" y="350" />
              <mxPoint x="440" y="350" />
            </Array>
          </mxGeometry>
        </mxCell>
        <mxCell id="5vuApOfT_cjBhhZYTmAU-14" value="Get services list accordingly with the DEP GRAPH" style="rounded=0;whiteSpace=wrap;html=1;fontSize=9;" vertex="1" parent="1">
          <mxGeometry x="300" y="270" width="120" height="60" as="geometry" />
        </mxCell>
        <mxCell id="5vuApOfT_cjBhhZYTmAU-17" value="no custom-workflow" style="edgeLabel;html=1;align=center;verticalAlign=middle;resizable=0;points=[];fontSize=9;" vertex="1" connectable="0" parent="1">
          <mxGeometry x="360" y="240" as="geometry" />
        </mxCell>
        <mxCell id="5vuApOfT_cjBhhZYTmAU-18" value="YES" style="edgeLabel;html=1;align=center;verticalAlign=middle;resizable=0;points=[];fontSize=9;" vertex="1" connectable="0" parent="1">
          <mxGeometry x="409" y="214" as="geometry">
            <mxPoint x="-9" y="-1" as="offset" />
          </mxGeometry>
        </mxCell>
        <mxCell id="5vuApOfT_cjBhhZYTmAU-32" style="edgeStyle=orthogonalEdgeStyle;rounded=0;orthogonalLoop=1;jettySize=auto;html=1;exitX=1;exitY=0.5;exitDx=0;exitDy=0;entryX=0;entryY=0.5;entryDx=0;entryDy=0;fontSize=9;" edge="1" parent="1" source="5vuApOfT_cjBhhZYTmAU-20" target="5vuApOfT_cjBhhZYTmAU-31">
          <mxGeometry relative="1" as="geometry" />
        </mxCell>
        <mxCell id="5vuApOfT_cjBhhZYTmAU-20" value="Build docker images&lt;br&gt;If CIRCLE_TAG ~= semver then build docker tag=&amp;nbsp;CIRCLE_TAG&lt;br&gt;&amp;nbsp; else build docker tag=CIRCLE_BRANCH (+master=latest)" style="rounded=0;whiteSpace=wrap;html=1;fontSize=9;" vertex="1" parent="1">
          <mxGeometry x="170" y="480" width="330" height="60" as="geometry" />
        </mxCell>
        <mxCell id="5vuApOfT_cjBhhZYTmAU-27" style="edgeStyle=orthogonalEdgeStyle;rounded=0;orthogonalLoop=1;jettySize=auto;html=1;exitX=0.5;exitY=1;exitDx=0;exitDy=0;entryX=0.5;entryY=0;entryDx=0;entryDy=0;fontSize=9;" edge="1" parent="1" source="5vuApOfT_cjBhhZYTmAU-21" target="xVTkL853BXkWZyznKZ-w-4">
          <mxGeometry relative="1" as="geometry" />
        </mxCell>
        <mxCell id="5vuApOfT_cjBhhZYTmAU-21" value="Release tag JOB" style="rounded=0;whiteSpace=wrap;html=1;fontSize=9;" vertex="1" parent="1">
          <mxGeometry x="250" y="8.881784197001252e-16" width="120" height="60" as="geometry" />
        </mxCell>
        <mxCell id="5vuApOfT_cjBhhZYTmAU-25" value="NOT MASTER BRANCH" style="edgeLabel;html=1;align=center;verticalAlign=middle;resizable=0;points=[];fontSize=9;" vertex="1" connectable="0" parent="1">
          <mxGeometry x="420" y="-38" as="geometry" />
        </mxCell>
        <mxCell id="5vuApOfT_cjBhhZYTmAU-31" value="Push docker images" style="rounded=0;whiteSpace=wrap;html=1;fontSize=9;fillColor=#d5e8d4;strokeColor=#82b366;" vertex="1" parent="1">
          <mxGeometry x="600" y="480" width="120" height="60" as="geometry" />
        </mxCell>
      </root>
    </mxGraphModel>
  </diagram>
</mxfile>
